shantell--light.ufo
<glyph name="five" format="2">
  <advance width="700"/>
  <unicode hex="0035"/>
  <outline>
    <contour>
      <point x="551" y="651" type="curve" smooth="yes"/>
      <point x="406.5810473815" y="651"/>
      <point x="340.4729518028" y="631.9191635216"/>
      <point x="170" y="635" type="curve"/>
      <point x="236" y="666" type="line"/>
      <point x="213" y="622"/>
      <point x="184" y="539"/>
      <point x="184" y="489" type="curve" smooth="yes"/>
      <point x="184" y="457"/>
      <point x="189.6640294275" y="451.9492685811"/>
      <point x="381" y="412" type="curve" smooth="yes"/>
      <point x="566.3553537698" y="373.5843826384"/>
      <point x="611" y="319"/>
      <point x="611" y="243" type="curve" smooth="yes"/>
      <point x="611" y="102"/>
      <point x="468.9566395664" y="-12"/>
      <point x="252" y="-12" type="curve" smooth="yes"/>
      <point x="158.0571428571" y="-12"/>
      <point x="115" y="24"/>
      <point x="115" y="78" type="curve" smooth="yes"/>
      <point x="115" y="99"/>
      <point x="124" y="115"/>
      <point x="142" y="115" type="curve" smooth="yes"/>
      <point x="174" y="115"/>
      <point x="167" y="53"/>
      <point x="239" y="53" type="curve" smooth="yes"/>
      <point x="410.6271186441" y="53"/>
      <point x="544" y="122"/>
      <point x="544" y="239" type="curve" smooth="yes"/>
      <point x="544" y="304"/>
      <point x="458.7638210937" y="329.9831933246"/>
      <point x="345" y="354" type="curve" smooth="yes"/>
      <point x="132.0147067517" y="397.8499133158"/>
      <point x="117" y="414"/>
      <point x="117" y="483" type="curve" smooth="yes"/>
      <point x="117" y="520"/>
      <point x="126" y="571"/>
      <point x="147" y="641" type="curve" smooth="yes"/>
      <point x="160" y="683"/>
      <point x="183" y="700"/>
      <point x="210" y="700" type="curve" smooth="yes"/>
      <point x="357.6864947135" y="696.9016819291"/>
      <point x="414.0447761194" y="716"/>
      <point x="525" y="716" type="curve" smooth="yes"/>
      <point x="572" y="716"/>
      <point x="596" y="696"/>
      <point x="595" y="675" type="curve" smooth="yes"/>
      <point x="594" y="660"/>
      <point x="577" y="651"/>
    </contour>
  </outline>
</glyph>
<glyph name="C" format="2">
  <advance width="618"/>
  <unicode hex="0043"/>
  <anchor x="375.0" y="700" name="top"/>
  <anchor x="332.0" y="0" name="bottom"/>
  <outline>
    <contour>
      <point x="336" y="-10" type="curve" smooth="yes"/>
      <point x="495" y="-10"/>
      <point x="568" y="87"/>
      <point x="568" y="136" type="curve" smooth="yes"/>
      <point x="568" y="154"/>
      <point x="561" y="169"/>
      <point x="548" y="169" type="curve" smooth="yes"/>
      <point x="515" y="169"/>
      <point x="495" y="55"/>
      <point x="335" y="55" type="curve" smooth="yes"/>
      <point x="214" y="55"/>
      <point x="137" y="138"/>
      <point x="137" y="288" type="curve" smooth="yes"/>
      <point x="137" y="471"/>
      <point x="246" y="646"/>
      <point x="404" y="646" type="curve" smooth="yes"/>
      <point x="465" y="646"/>
      <point x="473" y="618"/>
      <point x="473" y="590" type="curve" smooth="yes"/>
      <point x="473" y="558"/>
      <point x="466" y="530"/>
      <point x="496" y="530" type="curve" smooth="yes"/>
      <point x="526" y="530"/>
      <point x="541" y="562"/>
      <point x="541" y="595" type="curve" smooth="yes"/>
      <point x="541" y="665"/>
      <point x="504" y="711"/>
      <point x="406" y="711" type="curve" smooth="yes"/>
      <point x="207" y="711"/>
      <point x="70" y="506"/>
      <point x="70" y="289" type="curve" smooth="yes"/>
      <point x="70" y="121"/>
      <point x="143" y="-10"/>
    </contour>
  </outline>
</glyph>
<glyph name="E" format="2">
  <advance width="633"/>
  <unicode hex="0045"/>
  <anchor x="365" y="700" name="top"/>
  <anchor x="361" y="0" name="bottom"/>
  <anchor x="546" y="37" name="ogonek"/>
  <outline>
    <contour>
      <point x="149" y="569" type="curve" smooth="yes"/>
      <point x="105" y="499"/>
      <point x="68" y="393"/>
      <point x="68" y="293" type="curve" smooth="yes"/>
      <point x="68" y="119"/>
      <point x="175" y="-7"/>
      <point x="361" y="-7" type="curve" smooth="yes"/>
      <point x="521.1954022988506" y="-7.0"/>
      <point x="592.0" y="52.02272727272727"/>
      <point x="592" y="91" type="curve" smooth="yes"/>
      <point x="592" y="107"/>
      <point x="586" y="119"/>
      <point x="568" y="119" type="curve" smooth="yes"/>
      <point x="541" y="119"/>
      <point x="517" y="58"/>
      <point x="357" y="58" type="curve" smooth="yes"/>
      <point x="224" y="58"/>
      <point x="135" y="153"/>
      <point x="136" y="295" type="curve" smooth="yes"/>
      <point x="137" y="401"/>
      <point x="181" y="512"/>
      <point x="244" y="602" type="curve" smooth="yes"/>
      <point x="267" y="635"/>
      <point x="257" y="646"/>
      <point x="231" y="646" type="curve" smooth="yes"/>
      <point x="199" y="646"/>
      <point x="174" y="609"/>
    </contour>
    <contour>
      <point x="155" y="281" type="curve" smooth="yes"/>
      <point x="219.55389860915102" y="295.96901996733936"/>
      <point x="343.2310338047749" y="314.4063717698766"/>
      <point x="429" y="320" type="curve" smooth="yes"/>
      <point x="467" y="322"/>
      <point x="502" y="330"/>
      <point x="502" y="360" type="curve" smooth="yes"/>
      <point x="502" y="376"/>
      <point x="492" y="386"/>
      <point x="456" y="386" type="curve" smooth="yes"/>
      <point x="397.9860656719363" y="385.06429138180545"/>
      <point x="261.5577249944861" y="367.93671189229383"/>
      <point x="165" y="352" type="curve" smooth="yes"/>
      <point x="122" y="345"/>
      <point x="98" y="330"/>
      <point x="98" y="312" type="curve" smooth="yes"/>
      <point x="98" y="293"/>
      <point x="112" y="271"/>
    </contour>
    <contour>
      <point x="128" y="616" type="curve" smooth="yes"/>
      <point x="204.33867276887872" y="616.0"/>
      <point x="278.76887871853546" y="643.0"/>
      <point x="545" y="643" type="curve" smooth="yes"/>
      <point x="578" y="643"/>
      <point x="590" y="660"/>
      <point x="590" y="683" type="curve" smooth="yes"/>
      <point x="590" y="697"/>
      <point x="580" y="708"/>
      <point x="561" y="708" type="curve" smooth="yes"/>
      <point x="438.4817987152034" y="708.0"/>
      <point x="248.16528139917884" y="698.0414390870079"/>
      <point x="114" y="676" type="curve" smooth="yes"/>
      <point x="95" y="672"/>
      <point x="87" y="656"/>
      <point x="87" y="645" type="curve" smooth="yes"/>
      <point x="87" y="627"/>
      <point x="101" y="616"/>
    </contour>
  </outline>
</glyph>
<glyph name="H" format="2">
  <advance width="736"/>
  <unicode hex="0048"/>
  <anchor x="359" y="700" name="top"/>
  <anchor x="359" y="0" name="bottom"/>
  <outline>
    <contour>
      <point x="163" y="-12" type="curve" smooth="yes"/>
      <point x="177" y="-12"/>
      <point x="188" y="1"/>
      <point x="188" y="16" type="curve" smooth="yes"/>
      <point x="188" y="167"/>
      <point x="193" y="386"/>
      <point x="193" y="610" type="curve" smooth="yes"/>
      <point x="193" y="677"/>
      <point x="176" y="709"/>
      <point x="154" y="709" type="curve" smooth="yes"/>
      <point x="135" y="709"/>
      <point x="126" y="698"/>
      <point x="126" y="674" type="curve" smooth="yes"/>
      <point x="126" y="370"/>
      <point x="121" y="259"/>
      <point x="121" y="75" type="curve" smooth="yes"/>
      <point x="121" y="10"/>
      <point x="143" y="-12"/>
    </contour>
    <contour>
      <point x="605" y="-10" type="curve" smooth="yes"/>
      <point x="617" y="-10"/>
      <point x="629" y="5"/>
      <point x="623" y="33" type="curve" smooth="yes"/>
      <point x="610" y="112"/>
      <point x="605" y="176"/>
      <point x="604" y="233" type="curve" smooth="yes"/>
      <point x="603" y="332"/>
      <point x="610" y="488"/>
      <point x="610" y="614" type="curve" smooth="yes"/>
      <point x="610" y="672"/>
      <point x="591" y="704"/>
      <point x="571" y="704" type="curve" smooth="yes"/>
      <point x="556" y="704"/>
      <point x="543" y="693"/>
      <point x="543" y="668" type="curve" smooth="yes"/>
      <point x="543" y="581"/>
      <point x="536" y="450"/>
      <point x="536" y="311" type="curve" smooth="yes"/>
      <point x="536" y="67"/>
      <point x="549" y="-10"/>
    </contour>
    <contour>
      <point x="106" y="309" type="curve" smooth="yes"/>
      <point x="180.25381679389312" y="309.0"/>
      <point x="302" y="342.0"/>
      <point x="639" y="342" type="curve" smooth="yes"/>
      <point x="665" y="342.0"/>
      <point x="681.0" y="353.0"/>
      <point x="681" y="371" type="curve" smooth="yes"/>
      <point x="681.0" y="384.0"/>
      <point x="665" y="405.0"/>
      <point x="620" y="405" type="curve" smooth="yes"/>
      <point x="441" y="405.0"/>
      <point x="274.95928895801666" y="393.8158674457708"/>
      <point x="87" y="371" type="curve" smooth="yes"/>
      <point x="62" y="368"/>
      <point x="55" y="353"/>
      <point x="55" y="342" type="curve" smooth="yes"/>
      <point x="55.0" y="323.0"/>
      <point x="67" y="309"/>
    </contour>
  </outline>
</glyph>
<glyph name="S" format="2">
  <advance width="561"/>
  <unicode hex="0053"/>
  <anchor x="299" y="700" name="top"/>
  <anchor x="269" y="0" name="bottom"/>
  <outline>
    <contour>
      <point x="162" y="-9" type="curve" smooth="yes"/>
      <point x="332.4081632653" y="-9"/>
      <point x="496" y="36"/>
      <point x="496" y="127" type="curve" smooth="yes"/>
      <point x="496" y="286.3571428571"/>
      <point x="136" y="303.1836734694"/>
      <point x="136" y="418" type="curve" smooth="yes"/>
      <point x="136" y="510.2465753425"/>
      <point x="250.1377567228" y="599.2221334554"/>
      <point x="459" y="640" type="curve" smooth="yes"/>
      <point x="492.6994143525" y="646.1271662459"/>
      <point x="504" y="657.5263157895"/>
      <point x="504" y="677" type="curve" smooth="yes"/>
      <point x="504" y="697.625"/>
      <point x="490.4210526316" y="710"/>
      <point x="461" y="710" type="curve" smooth="yes"/>
      <point x="337.5664160401" y="710"/>
      <point x="67" y="589"/>
      <point x="67" y="415" type="curve" smooth="yes"/>
      <point x="67" y="247"/>
      <point x="406" y="245"/>
      <point x="425" y="121" type="curve"/>
      <point x="383" y="83"/>
      <point x="290" y="59"/>
      <point x="154" y="59" type="curve" smooth="yes"/>
      <point x="108" y="59"/>
      <point x="100" y="69"/>
      <point x="72" y="69" type="curve" smooth="yes"/>
      <point x="52" y="69"/>
      <point x="43" y="60"/>
      <point x="43" y="44" type="curve" smooth="yes"/>
      <point x="43" y="13"/>
      <point x="81.75" y="-9"/>
    </contour>
  </outline>
</glyph>
<glyph name="Y" format="2">
  <advance width="598"/>
  <unicode hex="0059"/>
  <anchor x="296" y="700" name="top"/>
  <anchor x="220" y="0" name="bottom"/>
  <outline>
    <contour>
      <point x="539" y="614" type="curve" smooth="yes"/>
      <point x="405" y="470"/>
      <point x="305" y="267"/>
      <point x="265" y="48" type="curve" smooth="yes"/>
      <point x="256" y="-2"/>
      <point x="244" y="-14"/>
      <point x="219" y="-14" type="curve" smooth="yes"/>
      <point x="193" y="-14"/>
      <point x="181" y="8"/>
      <point x="195" y="69" type="curve" smooth="yes"/>
      <point x="235" y="264"/>
      <point x="341" y="509"/>
      <point x="498" y="680" type="curve" smooth="yes"/>
      <point x="524" y="708"/>
      <point x="539" y="713"/>
      <point x="554" y="713" type="curve" smooth="yes"/>
      <point x="567" y="713"/>
      <point x="580" y="702"/>
      <point x="580" y="683" type="curve" smooth="yes"/>
      <point x="580" y="659"/>
      <point x="576" y="652"/>
    </contour>
    <contour>
      <point x="93" y="679" type="curve" smooth="yes"/>
      <point x="169" y="540"/>
      <point x="217" y="512"/>
      <point x="297" y="362" type="curve" smooth="yes"/>
      <point x="306" y="344"/>
      <point x="309" y="309"/>
      <point x="277" y="309" type="curve" smooth="yes"/>
      <point x="259" y="309"/>
      <point x="247" y="321"/>
      <point x="237" y="338" type="curve" smooth="yes"/>
      <point x="149" y="483"/>
      <point x="105" y="525"/>
      <point x="48" y="620" type="curve" smooth="yes"/>
      <point x="26" y="659"/>
      <point x="22" y="668"/>
      <point x="22" y="684" type="curve" smooth="yes"/>
      <point x="22" y="701"/>
      <point x="33" y="712"/>
      <point x="50" y="712" type="curve" smooth="yes"/>
      <point x="69" y="712"/>
      <point x="80" y="702"/>
    </contour>
  </outline>
</glyph>
<glyph name="e" format="2">
  <advance width="562"/>
  <unicode hex="0065"/>
  <anchor x="299" y="485" name="top"/>
  <anchor x="272" y="0" name="bottom"/>
  <anchor x="424" y="38" name="ogonek"/>
  <outline>
    <contour>
      <point x="224" y="179" type="curve" smooth="yes"/>
      <point x="363" y="179"/>
      <point x="468" y="243"/>
      <point x="468" y="349" type="curve" smooth="yes"/>
      <point x="468" y="447"/>
      <point x="411" y="495"/>
      <point x="323" y="495" type="curve" smooth="yes"/>
      <point x="165" y="495"/>
      <point x="65" y="343"/>
      <point x="65" y="210" type="curve" smooth="yes"/>
      <point x="65" y="82"/>
      <point x="127" y="-10"/>
      <point x="269" y="-10" type="curve" smooth="yes"/>
      <point x="385" y="-10"/>
      <point x="500" y="66"/>
      <point x="500" y="114" type="curve" smooth="yes"/>
      <point x="500" y="134"/>
      <point x="496" y="143"/>
      <point x="481" y="143" type="curve" smooth="yes"/>
      <point x="447" y="143"/>
      <point x="407" y="55"/>
      <point x="266" y="55" type="curve" smooth="yes"/>
      <point x="168" y="55"/>
      <point x="132" y="121"/>
      <point x="132" y="201" type="curve" smooth="yes"/>
      <point x="132" y="320"/>
      <point x="211" y="429"/>
      <point x="320" y="429" type="curve" smooth="yes"/>
      <point x="378" y="429"/>
      <point x="401" y="403"/>
      <point x="401" y="353" type="curve" smooth="yes"/>
      <point x="401" y="286"/>
      <point x="330" y="241"/>
      <point x="220" y="241" type="curve" smooth="yes"/>
      <point x="176" y="241"/>
      <point x="157" y="249"/>
      <point x="142" y="249" type="curve" smooth="yes"/>
      <point x="123" y="249"/>
      <point x="117" y="242"/>
      <point x="117" y="227" type="curve" smooth="yes"/>
      <point x="117" y="203"/>
      <point x="141" y="179"/>
    </contour>
  </outline>
</glyph>
<glyph name="l" format="2">
  <advance width="304"/>
  <unicode hex="006C"/>
  <anchor x="137.0" y="800" name="top"/>
  <anchor x="202.0" y="0" name="bottom"/>
  <outline>
    <contour>
      <point x="167" y="751" type="curve" smooth="yes"/>
      <point x="167" y="678"/>
      <point x="139" y="594"/>
      <point x="139" y="347" type="curve" smooth="yes"/>
      <point x="139" y="126"/>
      <point x="167" y="56"/>
      <point x="203" y="56" type="curve" smooth="yes"/>
      <point x="244" y="56"/>
      <point x="250" y="74"/>
      <point x="271" y="74" type="curve" smooth="yes"/>
      <point x="289" y="74"/>
      <point x="295" y="62"/>
      <point x="295" y="45" type="curve" smooth="yes"/>
      <point x="295" y="15"/>
      <point x="248" y="-11"/>
      <point x="205" y="-11" type="curve" smooth="yes"/>
      <point x="123" y="-11"/>
      <point x="71" y="33"/>
      <point x="71" y="367" type="curve" smooth="yes"/>
      <point x="71" y="541"/>
      <point x="83" y="636"/>
      <point x="99" y="741" type="curve" smooth="yes"/>
      <point x="108" y="793"/>
      <point x="118" y="810"/>
      <point x="136" y="810" type="curve" smooth="yes"/>
      <point x="155" y="810"/>
      <point x="167" y="794"/>
    </contour>
  </outline>
</glyph>
<glyph name="n" format="2">
  <advance width="612"/>
  <unicode hex="006E"/>
  <anchor x="305" y="485" name="top"/>
  <anchor x="319" y="0" name="bottom"/>
  <outline>
    <contour>
      <point x="519" y="-10" type="curve" smooth="yes"/>
      <point x="544" y="-10"/>
      <point x="554" y="8"/>
      <point x="554" y="23" type="curve" smooth="yes"/>
      <point x="554" y="39"/>
      <point x="550" y="46"/>
      <point x="540" y="54" type="curve" smooth="yes"/>
      <point x="495" y="92"/>
      <point x="499" y="183"/>
      <point x="499" y="342" type="curve" smooth="yes"/>
      <point x="499" y="432"/>
      <point x="461" y="496"/>
      <point x="404" y="496" type="curve" smooth="yes"/>
      <point x="307" y="496"/>
      <point x="203" y="348"/>
      <point x="136" y="73" type="curve"/>
      <point x="148" y="81" type="line"/>
      <point x="138" y="260"/>
      <point x="176" y="339"/>
      <point x="176" y="429" type="curve" smooth="yes"/>
      <point x="176" y="478"/>
      <point x="153" y="495"/>
      <point x="136" y="495" type="curve" smooth="yes"/>
      <point x="119" y="495"/>
      <point x="109" y="482"/>
      <point x="109" y="465" type="curve" smooth="yes"/>
      <point x="109" y="340"/>
      <point x="80" y="288"/>
      <point x="80" y="151" type="curve" smooth="yes"/>
      <point x="80" y="58"/>
      <point x="104" y="-9"/>
      <point x="150" y="-9" type="curve" smooth="yes"/>
      <point x="175" y="-9"/>
      <point x="189" y="12"/>
      <point x="202" y="68" type="curve" smooth="yes"/>
      <point x="249" y="263"/>
      <point x="350" y="429"/>
      <point x="398" y="429" type="curve" smooth="yes"/>
      <point x="421" y="429"/>
      <point x="432" y="418"/>
      <point x="448" y="396" type="curve"/>
      <point x="446" y="442"/>
      <point x="423" y="462"/>
      <point x="379" y="458" type="curve"/>
      <point x="419" y="427"/>
      <point x="431" y="415"/>
      <point x="431" y="265" type="curve" smooth="yes"/>
      <point x="431" y="64"/>
      <point x="455" y="-10"/>
    </contour>
  </outline>
</glyph>
<glyph name="s" format="2">
  <advance width="485"/>
  <unicode hex="0073"/>
  <anchor x="255" y="485" name="top"/>
  <anchor x="211" y="0" name="bottom"/>
  <outline>
    <contour>
      <point x="171" y="-10" type="curve" smooth="yes"/>
      <point x="300" y="-10"/>
      <point x="422" y="35"/>
      <point x="422" y="136" type="curve" smooth="yes"/>
      <point x="422" y="285"/>
      <point x="148" y="253"/>
      <point x="131" y="346" type="curve"/>
      <point x="162" y="403"/>
      <point x="230.0769230769" y="432"/>
      <point x="315" y="432" type="curve" smooth="yes"/>
      <point x="334" y="432"/>
      <point x="346" y="430"/>
      <point x="352" y="430" type="curve" smooth="yes"/>
      <point x="372" y="430"/>
      <point x="382" y="440"/>
      <point x="382" y="455" type="curve" smooth="yes"/>
      <point x="382" y="472.1818181818"/>
      <point x="355.9989674882" y="496.0000240119"/>
      <point x="313" y="497" type="curve" smooth="yes"/>
      <point x="196" y="500"/>
      <point x="72" y="426"/>
      <point x="72" y="344" type="curve" smooth="yes"/>
      <point x="72" y="199"/>
      <point x="337" y="231"/>
      <point x="360" y="133" type="curve"/>
      <point x="334.2483961206" y="75.5541144229"/>
      <point x="258" y="55"/>
      <point x="167" y="55" type="curve" smooth="yes"/>
      <point x="96" y="55"/>
      <point x="102" y="79"/>
      <point x="81" y="79" type="curve" smooth="yes"/>
      <point x="62" y="79"/>
      <point x="52" y="66"/>
      <point x="52" y="50" type="curve" smooth="yes"/>
      <point x="52" y="22"/>
      <point x="94" y="-10"/>
    </contour>
  </outline>
</glyph>
<glyph name="t" format="2">
  <advance width="438"/>
  <unicode hex="0074"/>
  <anchor x="160" y="700" name="top"/>
  <anchor x="253" y="0" name="bottom"/>
  <outline>
    <contour>
      <point x="148" y="286" type="curve" smooth="yes"/>
      <point x="148" y="400"/>
      <point x="168" y="440"/>
      <point x="183" y="557" type="curve" smooth="yes"/>
      <point x="196" y="654"/>
      <point x="192" y="706"/>
      <point x="158" y="706" type="curve" smooth="yes"/>
      <point x="137" y="706"/>
      <point x="131" y="694"/>
      <point x="129" y="679" type="curve" smooth="yes"/>
      <point x="125" y="645"/>
      <point x="122" y="609"/>
      <point x="114" y="544" type="curve" smooth="yes"/>
      <point x="103" y="466"/>
      <point x="81" y="392.1991701245"/>
      <point x="81" y="282" type="curve" smooth="yes"/>
      <point x="81.0" y="105.0"/>
      <point x="134.63636363636363" y="-13.0"/>
      <point x="281" y="-13" type="curve" smooth="yes"/>
      <point x="345.0" y="-13.0"/>
      <point x="381" y="17"/>
      <point x="381" y="47" type="curve" smooth="yes"/>
      <point x="381.0" y="62"/>
      <point x="372.0" y="72.0"/>
      <point x="358" y="72" type="curve" smooth="yes"/>
      <point x="332" y="72"/>
      <point x="328.12048192771084" y="53.0"/>
      <point x="278" y="53" type="curve" smooth="yes"/>
      <point x="192" y="53"/>
      <point x="148.0" y="112.0"/>
    </contour>
    <contour>
      <point x="156" y="387" type="curve" smooth="yes"/>
      <point x="208" y="409"/>
      <point x="256" y="425"/>
      <point x="339" y="432" type="curve" smooth="yes"/>
      <point x="364" y="434"/>
      <point x="374" y="441"/>
      <point x="374" y="460" type="curve" smooth="yes"/>
      <point x="374" y="479"/>
      <point x="353" y="495"/>
      <point x="327" y="495" type="curve" smooth="yes"/>
      <point x="280" y="495"/>
      <point x="218" y="482"/>
      <point x="171" y="464" type="curve" smooth="yes"/>
      <point x="119" y="445"/>
      <point x="111" y="429"/>
      <point x="111" y="405" type="curve" smooth="yes"/>
      <point x="111" y="386"/>
      <point x="127" y="374"/>
    </contour>
  </outline>
</glyph>
<glyph name="ij" format="2">
  <advance width="517"/>
  <unicode hex="0133"/>
  <outline>
    <contour>
      <point x="143" y="-11" type="curve" smooth="yes"/>
      <point x="159" y="-11"/>
      <point x="167" y="0"/>
      <point x="167" y="17" type="curve" smooth="yes"/>
      <point x="167" y="101"/>
      <point x="176" y="367"/>
      <point x="175" y="445" type="curve" smooth="yes"/>
      <point x="174" y="478"/>
      <point x="154" y="496"/>
      <point x="130" y="496" type="curve" smooth="yes"/>
      <point x="109" y="496"/>
      <point x="99" y="480"/>
      <point x="99" y="456" type="curve" smooth="yes"/>
      <point x="99" y="343"/>
      <point x="102" y="276"/>
      <point x="102" y="53" type="curve" smooth="yes"/>
      <point x="102" y="20"/>
      <point x="120" y="-11"/>
    </contour>
    <contour>
      <point x="146" y="655" type="curve" smooth="yes"/>
      <point x="185" y="655"/>
      <point x="200" y="682"/>
      <point x="200" y="703" type="curve" smooth="yes"/>
      <point x="200" y="737"/>
      <point x="168" y="779"/>
      <point x="117" y="779" type="curve" smooth="yes"/>
      <point x="90" y="779"/>
      <point x="69" y="759"/>
      <point x="69" y="734" type="curve" smooth="yes"/>
      <point x="69" y="694"/>
      <point x="105" y="655"/>
    </contour>
    <contour>
      <point x="422" y="444" type="curve" smooth="yes"/>
      <point x="452" y="266"/>
      <point x="465.0" y="124.34439834024897"/>
      <point x="465" y="-60" type="curve" smooth="yes"/>
      <point x="465.0" y="-191.8181818181818"/>
      <point x="414" y="-260"/>
      <point x="336" y="-260" type="curve" smooth="yes"/>
      <point x="269.0" y="-260.0"/>
      <point x="231.0" y="-230.5263157894737"/>
      <point x="231" y="-200" type="curve" smooth="yes"/>
      <point x="231.0" y="-181.93548387096774"/>
      <point x="243.0" y="-172.0"/>
      <point x="261" y="-172" type="curve" smooth="yes"/>
      <point x="287.0" y="-172.0"/>
      <point x="300.0" y="-195.0"/>
      <point x="331" y="-195" type="curve" smooth="yes"/>
      <point x="373.35632183908046" y="-195.0"/>
      <point x="398.0" y="-154.0"/>
      <point x="398" y="-72" type="curve" smooth="yes"/>
      <point x="398" y="260"/>
      <point x="350" y="393"/>
      <point x="350" y="457" type="curve" smooth="yes"/>
      <point x="350.0" y="485.0"/>
      <point x="366.46875" y="496.0"/>
      <point x="381" y="496" type="curve" smooth="yes"/>
      <point x="399.45" y="496.0"/>
      <point x="414.99562746766077" y="488.0274844889895"/>
    </contour>
    <contour>
      <point x="372" y="655" type="curve" smooth="yes"/>
      <point x="411" y="655"/>
      <point x="426" y="682"/>
      <point x="426" y="703" type="curve" smooth="yes"/>
      <point x="426" y="737"/>
      <point x="394" y="779"/>
      <point x="343" y="779" type="curve" smooth="yes"/>
      <point x="316" y="779"/>
      <point x="295" y="759"/>
      <point x="295" y="734" type="curve" smooth="yes"/>
      <point x="295" y="694"/>
      <point x="331" y="655"/>
    </contour>
  </outline>
</glyph>
<glyph name="oe" format="2">
  <advance width="966"/>
  <unicode hex="0153"/>
  <outline>
    <contour>
      <point x="315" y="-12" type="curve" smooth="yes"/>
      <point x="440" y="-12"/>
      <point x="535" y="99"/>
      <point x="535" y="246" type="curve" smooth="yes"/>
      <point x="535" y="398"/>
      <point x="453" y="494"/>
      <point x="321" y="494" type="curve" smooth="yes"/>
      <point x="233.7445652174" y="494"/>
      <point x="152" y="417"/>
      <point x="152" y="363" type="curve" smooth="yes"/>
      <point x="152" y="343"/>
      <point x="160" y="334"/>
      <point x="178" y="334" type="curve" smooth="yes"/>
      <point x="204" y="334"/>
      <point x="202" y="358"/>
      <point x="234" y="390" type="curve" smooth="yes"/>
      <point x="261.2327885168" y="417.2327885168"/>
      <point x="284" y="434"/>
      <point x="329" y="434" type="curve" smooth="yes"/>
      <point x="415" y="434"/>
      <point x="467" y="365.1073446328"/>
      <point x="467" y="252" type="curve" smooth="yes"/>
      <point x="467" y="128.3636363636"/>
      <point x="407" y="48"/>
      <point x="312" y="48" type="curve" smooth="yes"/>
      <point x="202" y="48"/>
      <point x="132" y="124"/>
      <point x="132" y="243" type="curve" smooth="yes"/>
      <point x="132" y="310.3373493976"/>
      <point x="158.4108012943" y="358.948324386"/>
      <point x="228" y="405" type="curve" smooth="yes"/>
      <point x="254.5806255639" y="422.0875450054"/>
      <point x="260" y="436.3673469388"/>
      <point x="260" y="458" type="curve" smooth="yes"/>
      <point x="260" y="474.4347826087"/>
      <point x="250" y="479"/>
      <point x="235" y="479" type="curve" smooth="yes"/>
      <point x="193" y="479"/>
      <point x="65" y="390"/>
      <point x="65" y="236" type="curve" smooth="yes"/>
      <point x="65" y="92"/>
      <point x="169" y="-12"/>
    </contour>
    <contour>
      <point x="648" y="179" type="curve" smooth="yes"/>
      <point x="787" y="179"/>
      <point x="892" y="243"/>
      <point x="892" y="349" type="curve" smooth="yes"/>
      <point x="892" y="447"/>
      <point x="835" y="495"/>
      <point x="747" y="495" type="curve" smooth="yes"/>
      <point x="589" y="495"/>
      <point x="489" y="343"/>
      <point x="489" y="210" type="curve" smooth="yes"/>
      <point x="489" y="82"/>
      <point x="551" y="-10"/>
      <point x="693" y="-10" type="curve" smooth="yes"/>
      <point x="809" y="-10"/>
      <point x="924" y="66"/>
      <point x="924" y="114" type="curve" smooth="yes"/>
      <point x="924" y="134"/>
      <point x="920" y="143"/>
      <point x="905" y="143" type="curve" smooth="yes"/>
      <point x="871" y="143"/>
      <point x="831" y="55"/>
      <point x="690" y="55" type="curve" smooth="yes"/>
      <point x="592" y="55"/>
      <point x="556" y="121"/>
      <point x="556" y="201" type="curve" smooth="yes"/>
      <point x="556" y="320"/>
      <point x="635" y="429"/>
      <point x="744" y="429" type="curve" smooth="yes"/>
      <point x="802" y="429"/>
      <point x="825" y="403"/>
      <point x="825" y="353" type="curve" smooth="yes"/>
      <point x="825" y="286"/>
      <point x="754" y="241"/>
      <point x="644" y="241" type="curve" smooth="yes"/>
      <point x="600" y="241"/>
      <point x="581" y="249"/>
      <point x="566" y="249" type="curve" smooth="yes"/>
      <point x="547" y="249"/>
      <point x="541" y="242"/>
      <point x="541" y="227" type="curve" smooth="yes"/>
      <point x="541" y="203"/>
      <point x="565" y="179"/>
    </contour>
  </outline>
</glyph>
<glyph name="commaturnedabovecmb" format="2">
  <unicode hex="0312"/>
  <anchor x="0" y="485" name="_top"/>
  <outline>
    <contour>
      <point x="-49" y="613.0"/>
      <point x="-30" y="597.0"/>
      <point x="0" y="597.0" type="curve" smooth="yes"/>
      <point x="24" y="597.0"/>
      <point x="35" y="612.0"/>
      <point x="35" y="646.0" type="curve" smooth="yes"/>
      <point x="35" y="683.0"/>
      <point x="40" y="711.0"/>
      <point x="56" y="742.0" type="curve" smooth="yes"/>
      <point x="72" y="773.0"/>
      <point x="75.0" y="783.0"/>
      <point x="75.0" y="795.0" type="curve" smooth="yes"/>
      <point x="75.0" y="809.0"/>
      <point x="65" y="818.0"/>
      <point x="48" y="818.0" type="curve" smooth="yes"/>
      <point x="31" y="818.0"/>
      <point x="14" y="811.0"/>
      <point x="-1" y="791.0" type="curve" smooth="yes"/>
      <point x="-32" y="752.0"/>
      <point x="-49" y="695.0"/>
      <point x="-49" y="658.0" type="curve" smooth="yes"/>
    </contour>
  </outline>
</glyph>
<glyph name="Euro" format="2">
	<unicode hex="20AC"/>
	<advance width="700"/>
	<image fileName="E_uro.png" xScale="0.9811876976" yScale="0.9811876976" xOffset="-35" yOffset="-90" color="0,0,0,0.27836"/>
	<outline>
		<contour>
			<point x="566" y="643" type="curve" smooth="yes"/>
			<point x="362.1736653027" y="567.4351149415"/>
			<point x="261" y="450"/>
			<point x="261" y="302" type="curve" smooth="yes"/>
			<point x="261" y="164"/>
			<point x="358" y="67"/>
			<point x="485" y="67" type="curve" smooth="yes"/>
			<point x="573" y="67"/>
			<point x="611" y="97"/>
			<point x="633" y="97" type="curve" smooth="yes"/>
			<point x="647" y="97"/>
			<point x="657" y="90"/>
			<point x="657" y="77" type="curve" smooth="yes"/>
			<point x="657" y="33"/>
			<point x="588" y="0"/>
			<point x="486" y="0" type="curve" smooth="yes"/>
			<point x="321" y="0"/>
			<point x="189" y="122"/>
			<point x="189" y="302" type="curve" smooth="yes"/>
			<point x="189" y="474"/>
			<point x="296" y="617"/>
			<point x="500" y="696" type="curve" smooth="yes"/>
			<point x="532" y="708"/>
			<point x="548" y="712"/>
			<point x="558" y="712" type="curve" smooth="yes"/>
			<point x="581" y="712"/>
			<point x="596" y="694"/>
			<point x="596" y="675" type="curve" smooth="yes"/>
			<point x="596" y="661"/>
			<point x="588" y="651"/>
		</contour>
		<contour>
			<point x="80" y="410" type="curve" smooth="yes"/>
			<point x="186" y="437"/>
			<point x="414" y="470"/>
			<point x="548" y="470" type="curve" smooth="yes"/>
			<point x="578" y="470"/>
			<point x="598" y="452"/>
			<point x="598" y="430" type="curve" smooth="yes"/>
			<point x="598" y="413"/>
			<point x="585" y="400"/>
			<point x="564" y="400" type="curve" smooth="yes"/>
			<point x="285" y="400"/>
			<point x="136" y="341"/>
			<point x="86" y="341" type="curve" smooth="yes"/>
			<point x="65" y="341"/>
			<point x="49" y="356"/>
			<point x="49" y="378" type="curve" smooth="yes"/>
			<point x="49" y="393"/>
			<point x="57" y="404"/>
		</contour>
		<contour>
			<point x="148" y="224" type="curve" smooth="yes"/>
			<point x="291" y="236"/>
			<point x="477" y="284"/>
			<point x="593" y="284" type="curve" smooth="yes"/>
			<point x="619" y="284"/>
			<point x="630" y="273"/>
			<point x="630" y="258" type="curve" smooth="yes"/>
			<point x="630" y="235"/>
			<point x="612" y="215"/>
			<point x="559" y="212" type="curve" smooth="yes"/>
			<point x="435" y="205"/>
			<point x="235" y="154"/>
			<point x="148" y="154" type="curve" smooth="yes"/>
			<point x="123" y="154"/>
			<point x="107" y="169"/>
			<point x="107" y="192" type="curve" smooth="yes"/>
			<point x="107" y="208"/>
			<point x="121" y="222"/>
		</contour>
	</outline>
</glyph>
<glyph name="notequal" format="2">
	<unicode hex="2260"/>
	<advance width="700"/>
	<outline>
		<contour>
			<point x="532" y="670" type="curve" smooth="yes"/>
			<point x="552" y="670"/>
			<point x="572" y="640"/>
			<point x="540" y="597" type="curve" smooth="yes"/>
			<point x="370" y="362"/>
			<point x="342" y="275"/>
			<point x="278" y="53" type="curve" smooth="yes"/>
			<point x="270" y="23"/>
			<point x="252" y="12"/>
			<point x="234" y="12" type="curve" smooth="yes"/>
			<point x="208" y="12"/>
			<point x="198" y="28"/>
			<point x="208" y="65" type="curve" smooth="yes"/>
			<point x="276" y="299"/>
			<point x="317" y="398"/>
			<point x="477" y="625" type="curve" smooth="yes"/>
			<point x="499" y="657"/>
			<point x="514" y="670"/>
		</contour>
		<contour>
			<point x="222" y="435"/>
			<point x="180.8506944444" y="413"/>
			<point x="138" y="413" type="curve" smooth="yes"/>
			<point x="110" y="413"/>
			<point x="100" y="425"/>
			<point x="100" y="442" type="curve" smooth="yes"/>
			<point x="100" y="459"/>
			<point x="110.9271196185" y="475.9878532697"/>
			<point x="165" y="485" type="curve" smooth="yes"/>
			<point x="237" y="497"/>
			<point x="315" y="500"/>
			<point x="385" y="500" type="curve" smooth="yes"/>
			<point x="530" y="500"/>
			<point x="603" y="489"/>
			<point x="603" y="458" type="curve" smooth="yes"/>
			<point x="603" y="439.7407407407"/>
			<point x="589.6285714286" y="429"/>
			<point x="564" y="429" type="curve" smooth="yes"/>
			<point x="525.1188811189" y="429"/>
			<point x="489.1538461538" y="435"/>
			<point x="425" y="435" type="curve" smooth="yes"/>
		</contour>
		<contour>
			<point x="222.1124260355" y="222"/>
			<point x="167.4733727811" y="176"/>
			<point x="127" y="176" type="curve" smooth="yes"/>
			<point x="102.8421052632" y="176"/>
			<point x="93" y="189.125"/>
			<point x="93" y="204" type="curve" smooth="yes"/>
			<point x="93" y="222"/>
			<point x="101" y="235"/>
			<point x="155" y="249" type="curve" smooth="yes"/>
			<point x="262" y="275"/>
			<point x="335" y="284"/>
			<point x="457" y="284" type="curve" smooth="yes"/>
			<point x="542" y="284"/>
			<point x="579" y="272"/>
			<point x="579" y="247" type="curve" smooth="yes"/>
			<point x="579" y="228"/>
			<point x="569" y="220"/>
			<point x="544" y="220" type="curve" smooth="yes"/>
			<point x="518" y="220"/>
			<point x="493" y="222"/>
			<point x="469" y="222" type="curve" smooth="yes"/>
		</contour>
	</outline>
</glyph>
<glyph name="lozenge" format="2">
	<unicode hex="25CA"/>
	<advance width="700"/>
	<outline>
		<contour>
			<point x="148" y="232" type="curve" smooth="yes"/>
			<point x="239" y="93"/>
			<point x="245" y="-16"/>
			<point x="380" y="-185" type="curve"/>
			<point x="355" y="-185" type="line"/>
			<point x="458" y="-44"/>
			<point x="501" y="78"/>
			<point x="588" y="228" type="curve"/>
			<point x="590" y="190" type="line"/>
			<point x="487" y="334"/>
			<point x="456" y="488"/>
			<point x="347" y="635" type="curve"/>
			<point x="373" y="635" type="line"/>
			<point x="259" y="478"/>
			<point x="216" y="337"/>
			<point x="118" y="168" type="curve" smooth="yes"/>
			<point x="112" y="157"/>
			<point x="110" y="153"/>
			<point x="92" y="153" type="curve" smooth="yes"/>
			<point x="70" y="153"/>
			<point x="48" y="188"/>
			<point x="62" y="211" type="curve" smooth="yes"/>
			<point x="166" y="389"/>
			<point x="204" y="529"/>
			<point x="316" y="676" type="curve" smooth="yes"/>
			<point x="337.7791853477" y="704.4076330623"/>
			<point x="350" y="708"/>
			<point x="360" y="708" type="curve" smooth="yes"/>
			<point x="370" y="708"/>
			<point x="381.2122413828" y="705.4510248998"/>
			<point x="398" y="684" type="curve" smooth="yes"/>
			<point x="509.6540685405" y="545.4293256506"/>
			<point x="540.270161107" y="382.6170243648"/>
			<point x="631" y="254" type="curve" smooth="yes"/>
			<point x="649.3326180889" y="227.3343736888"/>
			<point x="652.0719683931" y="200.875944688"/>
			<point x="631" y="164" type="curve" smooth="yes"/>
			<point x="557" y="33"/>
			<point x="512" y="-95"/>
			<point x="407" y="-232" type="curve" smooth="yes"/>
			<point x="389.7841678926" y="-254.9544428098"/>
			<point x="378" y="-259"/>
			<point x="368" y="-259" type="curve" smooth="yes"/>
			<point x="358" y="-259"/>
			<point x="347.1576516235" y="-256.0044973733"/>
			<point x="326" y="-231" type="curve" smooth="yes"/>
			<point x="189" y="-66"/>
			<point x="184" y="48"/>
			<point x="90" y="194" type="curve" smooth="yes"/>
			<point x="75" y="216"/>
			<point x="94" y="248"/>
			<point x="119" y="248" type="curve" smooth="yes"/>
			<point x="130" y="248"/>
			<point x="142" y="242"/>
		</contour>
	</outline>
</glyph>
<glyph name="heartwhite" format="2">
	<unicode hex="2661"/>
	<advance width="900"/>
	<outline>
		<contour>
			<point x="465" y="503" type="curve" smooth="yes"/>
			<point x="416" y="586"/>
			<point x="359" y="641"/>
			<point x="287" y="641" type="curve" smooth="yes"/>
			<point x="184" y="641"/>
			<point x="117" y="580"/>
			<point x="117" y="478" type="curve" smooth="yes"/>
			<point x="117" y="280"/>
			<point x="392" y="56"/>
			<point x="520" y="56" type="curve" smooth="yes"/>
			<point x="632" y="56"/>
			<point x="784" y="274.0176600442"/>
			<point x="784" y="493" type="curve" smooth="yes"/>
			<point x="784" y="541.7671232877"/>
			<point x="764" y="582"/>
			<point x="713" y="582" type="curve" smooth="yes"/>
			<point x="622" y="582"/>
			<point x="537" y="516"/>
			<point x="476" y="394" type="curve" smooth="yes"/>
			<point x="467" y="375"/>
			<point x="459.375" y="369"/>
			<point x="448" y="369" type="curve" smooth="yes"/>
			<point x="425.3333333333" y="369"/>
			<point x="401" y="401"/>
			<point x="418" y="434" type="curve" smooth="yes"/>
			<point x="489" y="578"/>
			<point x="600" y="652"/>
			<point x="713" y="652" type="curve" smooth="yes"/>
			<point x="805.2907801418" y="652"/>
			<point x="856" y="588.6223776224"/>
			<point x="856" y="493" type="curve" smooth="yes"/>
			<point x="856" y="227.3824091778"/>
			<point x="672.9101796407" y="-14"/>
			<point x="520" y="-14" type="curve" smooth="yes"/>
			<point x="361" y="-14"/>
			<point x="47" y="236"/>
			<point x="47" y="478" type="curve" smooth="yes"/>
			<point x="47" y="624"/>
			<point x="146" y="711"/>
			<point x="287" y="711" type="curve" smooth="yes"/>
			<point x="380" y="711"/>
			<point x="454" y="653"/>
			<point x="522" y="535" type="curve" smooth="yes"/>
			<point x="536" y="512"/>
			<point x="517" y="486"/>
			<point x="495" y="486" type="curve" smooth="yes"/>
			<point x="483" y="486"/>
			<point x="471" y="492"/>
		</contour>
	</outline>
</glyph>
<glyph name="D.alt3" format="2">
  <advance width="642"/>
  <anchor x="348" y="700" name="top"/>
  <anchor x="213" y="0" name="bottom"/>
  <outline>
    <contour>
      <point x="195" y="-9" type="curve" smooth="yes"/>
      <point x="402.0" y="-9.0"/>
      <point x="599.0" y="200.0"/>
      <point x="599" y="448" type="curve" smooth="yes"/>
      <point x="599" y="610"/>
      <point x="502.0" y="709.0"/>
      <point x="346" y="709" type="curve" smooth="yes"/>
      <point x="230" y="709"/>
      <point x="108.75732585838531" y="669.498570083208"/>
      <point x="53" y="647" type="curve" smooth="yes"/>
      <point x="38.10038492231246" y="640.7918270509635"/>
      <point x="33.0" y="630.0"/>
      <point x="33.0" y="618" type="curve" smooth="yes"/>
      <point x="33" y="602"/>
      <point x="42" y="591"/>
      <point x="63" y="591" type="curve" smooth="yes"/>
      <point x="124" y="591"/>
      <point x="172.0" y="644.0"/>
      <point x="336" y="644" type="curve" smooth="yes"/>
      <point x="476.0" y="644.0"/>
      <point x="530" y="570"/>
      <point x="530" y="446" type="curve" smooth="yes"/>
      <point x="530.0" y="227.0"/>
      <point x="365.0" y="44"/>
      <point x="157" y="51" type="curve"/>
      <point x="198" y="38" type="line"/>
      <point x="176" y="65"/>
      <point x="167" y="98"/>
      <point x="167.0" y="160" type="curve" smooth="yes"/>
      <point x="167" y="375"/>
      <point x="191" y="486"/>
      <point x="191" y="583" type="curve" smooth="yes"/>
      <point x="191" y="609"/>
      <point x="179" y="631"/>
      <point x="165" y="631" type="curve" smooth="yes"/>
      <point x="145" y="631"/>
      <point x="136" y="617"/>
      <point x="131" y="578" type="curve" smooth="yes"/>
      <point x="113" y="433"/>
      <point x="103" y="291"/>
      <point x="103" y="141" type="curve" smooth="yes"/>
      <point x="103.0" y="49.0"/>
      <point x="146" y="-9"/>
    </contour>
  </outline>
</glyph>
<glyph name="G.alt1" format="2">
  <advance width="742"/>
  <anchor x="421" y="700" name="top"/>
  <anchor x="344" y="0" name="bottom"/>
  <outline>
    <contour>
      <point x="353" y="273" type="curve" smooth="yes"/>
      <point x="401" y="273"/>
      <point x="493" y="315"/>
      <point x="672" y="315" type="curve" smooth="yes"/>
      <point x="701" y="315"/>
      <point x="714" y="330"/>
      <point x="714" y="344" type="curve" smooth="yes"/>
      <point x="714" y="365"/>
      <point x="704" y="382"/>
      <point x="654" y="382" type="curve" smooth="yes"/>
      <point x="568" y="382"/>
      <point x="476" y="367"/>
      <point x="382" y="345" type="curve" smooth="yes"/>
      <point x="332" y="333"/>
      <point x="319" y="318"/>
      <point x="319" y="302" type="curve" smooth="yes"/>
      <point x="319" y="285"/>
      <point x="329" y="273"/>
    </contour>
    <contour>
      <point x="657" y="-97" type="curve" smooth="yes"/>
      <point x="672" y="-97"/>
      <point x="681" y="-88"/>
      <point x="681" y="-73" type="curve"/>
      <point x="681" y="-58"/>
      <point x="677" y="-41"/>
      <point x="661" y="-4" type="curve" smooth="yes"/>
      <point x="628" y="69"/>
      <point x="605" y="171"/>
      <point x="605" y="297" type="curve" smooth="yes"/>
      <point x="605" y="329"/>
      <point x="592" y="348"/>
      <point x="571" y="348" type="curve" smooth="yes"/>
      <point x="539" y="348"/>
      <point x="523" y="336"/>
      <point x="509" y="302" type="curve" smooth="yes"/>
      <point x="444" y="144"/>
      <point x="376" y="55"/>
      <point x="274" y="55" type="curve" smooth="yes"/>
      <point x="193" y="55"/>
      <point x="133" y="116"/>
      <point x="133" y="237" type="curve" smooth="yes"/>
      <point x="133" y="431"/>
      <point x="323" y="642"/>
      <point x="489" y="642" type="curve" smooth="yes"/>
      <point x="566.5384615385" y="642"/>
      <point x="488.6551724138" y="540"/>
      <point x="535" y="540" type="curve" smooth="yes"/>
      <point x="563" y="540"/>
      <point x="589" y="576"/>
      <point x="589" y="634" type="curve" smooth="yes"/>
      <point x="589" y="674"/>
      <point x="562" y="708"/>
      <point x="495" y="708" type="curve" smooth="yes"/>
      <point x="288" y="708"/>
      <point x="65" y="481"/>
      <point x="65" y="238" type="curve" smooth="yes"/>
      <point x="65" y="66"/>
      <point x="156" y="-10"/>
      <point x="277" y="-10" type="curve" smooth="yes"/>
      <point x="381" y="-10"/>
      <point x="482" y="50"/>
      <point x="569" y="290" type="curve"/>
      <point x="540" y="292" type="line"/>
      <point x="544" y="104"/>
      <point x="580" y="-2"/>
      <point x="600" y="-43" type="curve" smooth="yes"/>
      <point x="617" y="-81"/>
      <point x="632" y="-97"/>
    </contour>
  </outline>
</glyph>
<glyph name="Germandbls.alt3" format="2">
  <advance width="733"/>
  <outline>
    <contour>
      <point x="359" y="708" type="curve" smooth="yes"/>
      <point x="159" y="708"/>
      <point x="73.0" y="610.0"/>
      <point x="73" y="466" type="curve" smooth="yes"/>
      <point x="73.0" y="335.0"/>
      <point x="118" y="239"/>
      <point x="118" y="47" type="curve" smooth="yes"/>
      <point x="118" y="8"/>
      <point x="132" y="-10"/>
      <point x="151" y="-10" type="curve" smooth="yes"/>
      <point x="172" y="-10"/>
      <point x="185" y="4"/>
      <point x="185" y="25" type="curve" smooth="yes"/>
      <point x="185.0" y="233.0"/>
      <point x="140.0" y="341.0"/>
      <point x="140" y="466" type="curve" smooth="yes"/>
      <point x="140.0" y="581.0"/>
      <point x="213" y="643"/>
      <point x="358" y="643" type="curve" smooth="yes"/>
      <point x="452.0" y="643.0"/>
      <point x="519.0" y="624.0"/>
      <point x="547" y="591" type="curve"/>
      <point x="538" y="628" type="line"/>
      <point x="544" y="581"/>
      <point x="482.4325799235462" y="503.6881052224895"/>
      <point x="370" y="457" type="curve" smooth="yes"/>
      <point x="341.0" y="445.0"/>
      <point x="327.0" y="426.0"/>
      <point x="327" y="395" type="curve" smooth="yes"/>
      <point x="327.0" y="274.0"/>
      <point x="576" y="292"/>
      <point x="592" y="152" type="curve"/>
      <point x="576" y="86"/>
      <point x="515.0" y="59.0"/>
      <point x="444" y="59" type="curve" smooth="yes"/>
      <point x="342" y="59"/>
      <point x="351" y="98.0"/>
      <point x="312" y="98.0" type="curve" smooth="yes"/>
      <point x="296" y="98"/>
      <point x="287.0" y="89.0344827586207"/>
      <point x="287" y="72" type="curve" smooth="yes"/>
      <point x="287.0" y="32.53846153846154"/>
      <point x="339.94776119402985" y="-9.0"/>
      <point x="452" y="-9" type="curve" smooth="yes"/>
      <point x="556.0" y="-9.0"/>
      <point x="656" y="46"/>
      <point x="656" y="157" type="curve" smooth="yes"/>
      <point x="656.0" y="339.0"/>
      <point x="382.01229412534894" y="329.07815551114686"/>
      <point x="396" y="418" type="curve"/>
      <point x="377" y="389" type="line"/>
      <point x="541.9438468429812" y="460.37920857532515"/>
      <point x="604.0" y="544.0"/>
      <point x="604" y="606" type="curve" smooth="yes"/>
      <point x="604.0" y="667.0"/>
      <point x="497" y="708.0"/>
    </contour>
  </outline>
</glyph>
<glyph name="M.alt3" format="2">
  <advance width="965"/>
  <anchor x="501.0" y="700" name="top"/>
  <anchor x="469.0" y="0" name="bottom"/>
  <outline>
    <contour>
      <point x="177" y="478" type="curve"/>
      <point x="153" y="481" type="line"/>
      <point x="187" y="637"/>
      <point x="236" y="709"/>
      <point x="281" y="709" type="curve" smooth="yes"/>
      <point x="354" y="709"/>
      <point x="376" y="538"/>
      <point x="404" y="325" type="curve" smooth="yes"/>
      <point x="416" y="232"/>
      <point x="440" y="139"/>
      <point x="475" y="69" type="curve"/>
      <point x="454" y="60" type="line"/>
      <point x="541" y="209"/>
      <point x="567" y="454"/>
      <point x="617" y="570" type="curve" smooth="yes"/>
      <point x="659" y="666"/>
      <point x="690" y="703"/>
      <point x="729" y="703" type="curve"/>
      <point x="771" y="703"/>
      <point x="800" y="662"/>
      <point x="818" y="437" type="curve" smooth="yes"/>
      <point x="829" y="296"/>
      <point x="854" y="164"/>
      <point x="900" y="46" type="curve" smooth="yes"/>
      <point x="916" y="5"/>
      <point x="903" y="-9"/>
      <point x="880" y="-9" type="curve" smooth="yes"/>
      <point x="858" y="-9"/>
      <point x="841" y="8"/>
      <point x="817" y="65" type="curve" smooth="yes"/>
      <point x="785" y="145"/>
      <point x="756" y="301"/>
      <point x="749" y="429" type="curve" smooth="yes"/>
      <point x="743" y="533"/>
      <point x="733" y="591"/>
      <point x="715" y="634" type="curve"/>
      <point x="726" y="629" type="line"/>
      <point x="630" y="503"/>
      <point x="631" y="245"/>
      <point x="516" y="30" type="curve" smooth="yes"/>
      <point x="501" y="1"/>
      <point x="493" y="-9"/>
      <point x="469" y="-9" type="curve" smooth="yes"/>
      <point x="448" y="-9"/>
      <point x="435" y="2"/>
      <point x="417" y="29" type="curve" smooth="yes"/>
      <point x="372" y="100"/>
      <point x="343" y="231"/>
      <point x="324" y="387" type="curve" smooth="yes"/>
      <point x="312" y="497"/>
      <point x="298" y="577"/>
      <point x="266" y="640" type="curve"/>
      <point x="286" y="641" type="line"/>
      <point x="216" y="529"/>
      <point x="174" y="286"/>
      <point x="174" y="24" type="curve" smooth="yes"/>
      <point x="174" y="-1"/>
      <point x="162" y="-12"/>
      <point x="147" y="-12" type="curve" smooth="yes"/>
      <point x="127" y="-12"/>
      <point x="100" y="7"/>
      <point x="100" y="104" type="curve" smooth="yes"/>
      <point x="100" y="241"/>
      <point x="112" y="308"/>
      <point x="112" y="379" type="curve" smooth="yes"/>
      <point x="112" y="551"/>
      <point x="74" y="585"/>
      <point x="74" y="622" type="curve" smooth="yes"/>
      <point x="74" y="639"/>
      <point x="84" y="648"/>
      <point x="102" y="648" type="curve" smooth="yes"/>
      <point x="141" y="648"/>
      <point x="170" y="576"/>
    </contour>
  </outline>
</glyph>
<glyph name="O.alt3" format="2">
  <advance width="726"/>
  <anchor x="359" y="700" name="top"/>
  <anchor x="359" y="0" name="bottom"/>
  <anchor x="485" y="29" name="ogonek"/>
  <outline>
    <contour>
      <point x="276" y="567" type="curve" smooth="yes"/>
      <point x="225" y="533"/>
      <point x="140" y="443"/>
      <point x="140" y="290" type="curve" smooth="yes"/>
      <point x="140" y="169"/>
      <point x="205" y="56"/>
      <point x="347" y="56" type="curve" smooth="yes"/>
      <point x="484" y="56"/>
      <point x="586" y="151"/>
      <point x="586" y="300" type="curve" smooth="yes"/>
      <point x="586" y="462"/>
      <point x="512" y="646"/>
      <point x="361" y="646" type="curve" smooth="yes"/>
      <point x="326" y="646"/>
      <point x="315" y="617"/>
      <point x="315" y="580" type="curve" smooth="yes"/>
      <point x="315" y="550"/>
      <point x="298" y="535"/>
      <point x="280" y="535" type="curve" smooth="yes"/>
      <point x="262" y="535"/>
      <point x="243" y="551"/>
      <point x="243" y="580" type="curve" smooth="yes"/>
      <point x="243" y="649"/>
      <point x="283" y="711"/>
      <point x="354" y="711" type="curve" smooth="yes"/>
      <point x="550" y="711"/>
      <point x="656" y="526"/>
      <point x="656" y="300" type="curve" smooth="yes"/>
      <point x="656" y="127"/>
      <point x="535" y="-10"/>
      <point x="347" y="-10" type="curve" smooth="yes"/>
      <point x="166" y="-10"/>
      <point x="70" y="131"/>
      <point x="70" y="290" type="curve" smooth="yes"/>
      <point x="70" y="519"/>
      <point x="245" y="645"/>
      <point x="279" y="645" type="curve" smooth="yes"/>
      <point x="287" y="645"/>
      <point x="296" y="644"/>
      <point x="305" y="630" type="curve" smooth="yes"/>
      <point x="322" y="605"/>
      <point x="303" y="584"/>
    </contour>
  </outline>
</glyph>
<glyph name="P.alt1" format="2">
  <advance width="570"/>
  <anchor x="299" y="700" name="top"/>
  <anchor x="171" y="0" name="bottom"/>
  <outline>
    <contour>
      <point x="138" y="47" type="curve" smooth="yes"/>
      <point x="138" y="8"/>
      <point x="152" y="-10"/>
      <point x="171" y="-10" type="curve" smooth="yes"/>
      <point x="192" y="-10"/>
      <point x="205" y="4"/>
      <point x="205" y="25" type="curve" smooth="yes"/>
      <point x="205" y="233"/>
      <point x="140" y="341"/>
      <point x="140" y="466" type="curve" smooth="yes"/>
      <point x="140" y="581"/>
      <point x="193" y="643"/>
      <point x="298" y="643" type="curve" smooth="yes"/>
      <point x="381" y="643"/>
      <point x="458" y="589"/>
      <point x="458" y="480" type="curve" smooth="yes"/>
      <point x="458" y="389"/>
      <point x="377" y="308"/>
      <point x="256" y="308" type="curve" smooth="yes"/>
      <point x="197" y="308"/>
      <point x="185" y="326"/>
      <point x="158" y="326" type="curve" smooth="yes"/>
      <point x="147" y="326"/>
      <point x="139" y="318"/>
      <point x="139" y="303" type="curve" smooth="yes"/>
      <point x="139" y="272"/>
      <point x="189" y="243"/>
      <point x="259" y="243" type="curve" smooth="yes"/>
      <point x="416" y="243"/>
      <point x="525" y="360"/>
      <point x="525" y="480" type="curve" smooth="yes"/>
      <point x="525" y="625"/>
      <point x="423" y="708"/>
      <point x="299" y="708" type="curve" smooth="yes"/>
      <point x="141" y="708"/>
      <point x="73" y="610"/>
      <point x="73" y="466" type="curve" smooth="yes"/>
      <point x="73" y="335"/>
      <point x="138" y="219"/>
    </contour>
  </outline>
</glyph>
<glyph name="Q.alt2" format="2">
  <advance width="716"/>
  <anchor x="388" y="700" name="top"/>
  <anchor x="359" y="0" name="bottom"/>
  <outline>
    <contour>
      <point x="438" y="275" type="curve" smooth="yes"/>
      <point x="468" y="227"/>
      <point x="532" y="67"/>
      <point x="638" y="-54" type="curve" smooth="yes"/>
      <point x="667.0" y="-87.0"/>
      <point x="648.0" y="-111.0"/>
      <point x="622" y="-111" type="curve" smooth="yes"/>
      <point x="603" y="-111"/>
      <point x="587" y="-106"/>
      <point x="557" y="-74" type="curve" smooth="yes"/>
      <point x="485" y="5.0"/>
      <point x="415" y="189"/>
      <point x="361" y="268" type="curve" smooth="yes"/>
      <point x="336" y="303"/>
      <point x="348" y="335"/>
      <point x="375" y="335" type="curve" smooth="yes"/>
      <point x="399.0" y="335.0"/>
      <point x="409" y="323"/>
    </contour>
    <contour>
      <point x="218" y="575" type="curve" smooth="yes"/>
      <point x="166" y="523"/>
      <point x="137" y="409"/>
      <point x="137" y="313" type="curve" smooth="yes"/>
      <point x="137" y="179"/>
      <point x="197" y="56"/>
      <point x="360" y="56" type="curve" smooth="yes"/>
      <point x="494" y="56"/>
      <point x="577" y="183"/>
      <point x="577" y="315" type="curve" smooth="yes"/>
      <point x="577" y="484"/>
      <point x="509" y="644"/>
      <point x="384" y="644" type="curve" smooth="yes"/>
      <point x="331" y="644"/>
      <point x="264" y="598"/>
      <point x="223" y="519" type="curve" smooth="yes"/>
      <point x="207" y="488"/>
      <point x="192" y="478"/>
      <point x="169" y="478" type="curve" smooth="yes"/>
      <point x="161" y="478"/>
      <point x="156" y="487"/>
      <point x="156" y="499" type="curve" smooth="yes"/>
      <point x="156" y="588"/>
      <point x="277" y="709"/>
      <point x="399" y="709" type="curve" smooth="yes"/>
      <point x="532" y="709"/>
      <point x="644" y="546"/>
      <point x="644" y="327" type="curve" smooth="yes"/>
      <point x="644" y="144"/>
      <point x="539" y="-9"/>
      <point x="360" y="-9" type="curve" smooth="yes"/>
      <point x="147" y="-9"/>
      <point x="70" y="144"/>
      <point x="70" y="313" type="curve" smooth="yes"/>
      <point x="70" y="538"/>
      <point x="191" y="654"/>
      <point x="233" y="654" type="curve" smooth="yes"/>
      <point x="256" y="654"/>
      <point x="264" y="639"/>
      <point x="264" y="626" type="curve" smooth="yes"/>
      <point x="264" y="609"/>
      <point x="246" y="603"/>
    </contour>
  </outline>
</glyph>
<glyph name="R.alt3" format="2">
  <advance width="670"/>
  <anchor x="403.0" y="700" name="top"/>
  <anchor x="307.0" y="0" name="bottom"/>
  <outline>
    <contour>
      <point x="92" y="631" type="curve" smooth="yes"/>
      <point x="62" y="631"/>
      <point x="58" y="613"/>
      <point x="75" y="570" type="curve" smooth="yes"/>
      <point x="106" y="493"/>
      <point x="111" y="450"/>
      <point x="116" y="395" type="curve"/>
      <point x="81" y="272"/>
      <point x="65" y="181"/>
      <point x="65" y="106" type="curve" smooth="yes"/>
      <point x="65" y="30"/>
      <point x="75" y="-13"/>
      <point x="109" y="-13" type="curve" smooth="yes"/>
      <point x="128" y="-13"/>
      <point x="132" y="-5"/>
      <point x="132" y="68" type="curve" smooth="yes"/>
      <point x="132" y="343"/>
      <point x="247" y="645"/>
      <point x="450" y="645" type="curve" smooth="yes"/>
      <point x="523" y="645"/>
      <point x="551" y="600"/>
      <point x="551" y="547" type="curve" smooth="yes"/>
      <point x="551" y="465"/>
      <point x="474" y="372"/>
      <point x="227" y="281" type="curve" smooth="yes"/>
      <point x="184" y="265"/>
      <point x="177" y="239"/>
      <point x="200" y="208" type="curve" smooth="yes"/>
      <point x="279" y="106"/>
      <point x="521" y="-12"/>
      <point x="595" y="-12" type="curve" smooth="yes"/>
      <point x="627" y="-12"/>
      <point x="639" y="-3"/>
      <point x="639" y="19" type="curve" smooth="yes"/>
      <point x="639" y="34"/>
      <point x="629" y="45"/>
      <point x="585" y="60" type="curve" smooth="yes"/>
      <point x="443" y="107"/>
      <point x="329" y="175"/>
      <point x="269" y="232" type="curve"/>
      <point x="559" y="337"/>
      <point x="621" y="450"/>
      <point x="621" y="548" type="curve" smooth="yes"/>
      <point x="621" y="639"/>
      <point x="572" y="710"/>
      <point x="459" y="710" type="curve" smooth="yes"/>
      <point x="333" y="710"/>
      <point x="221" y="637"/>
      <point x="144" y="453" type="curve"/>
      <point x="168" y="462" type="line"/>
      <point x="159" y="585"/>
      <point x="126" y="631"/>
    </contour>
  </outline>
</glyph>
<glyph name="T.alt1" format="2">
  <advance width="615"/>
  <anchor x="317.0" y="700" name="top"/>
  <anchor x="317.0" y="0" name="bottom"/>
  <outline>
    <contour>
      <point x="273" y="616" type="curve" smooth="yes"/>
      <point x="249" y="334"/>
      <point x="261" y="170"/>
      <point x="270" y="89" type="curve" smooth="yes"/>
      <point x="279" y="9"/>
      <point x="300" y="-13"/>
      <point x="323" y="-13" type="curve" smooth="yes"/>
      <point x="338" y="-13"/>
      <point x="349" y="-6"/>
      <point x="349" y="13" type="curve" smooth="yes"/>
      <point x="349" y="56"/>
      <point x="311" y="167"/>
      <point x="335" y="544" type="curve" smooth="yes"/>
      <point x="340" y="632"/>
      <point x="333" y="660"/>
      <point x="302" y="660" type="curve" smooth="yes"/>
      <point x="285" y="660"/>
      <point x="275" y="642"/>
    </contour>
    <contour>
      <point x="112" y="639" type="curve" smooth="yes"/>
      <point x="240" y="635"/>
      <point x="315" y="634"/>
      <point x="467" y="634" type="curve" smooth="yes"/>
      <point x="531" y="634"/>
      <point x="596" y="650"/>
      <point x="596" y="685" type="curve" smooth="yes"/>
      <point x="596" y="700"/>
      <point x="586" y="711"/>
      <point x="564" y="711" type="curve" smooth="yes"/>
      <point x="533" y="711"/>
      <point x="523" y="700"/>
      <point x="430" y="700" type="curve" smooth="yes"/>
      <point x="295" y="700"/>
      <point x="223" y="706"/>
      <point x="58" y="706" type="curve" smooth="yes"/>
      <point x="30" y="706"/>
      <point x="19" y="697"/>
      <point x="19" y="685" type="curve" smooth="yes"/>
      <point x="19" y="663"/>
      <point x="34" y="641"/>
    </contour>
  </outline>
</glyph>
<glyph name="V.alt1" format="2">
  <advance width="665"/>
  <anchor x="336" y="700" name="top"/>
  <anchor x="336" y="0" name="bottom"/>
  <outline>
    <contour>
      <point x="304" y="-5"/>
      <point x="318" y="-11"/>
      <point x="342" y="-11" type="curve" smooth="yes"/>
      <point x="354" y="-11"/>
      <point x="365" y="-2"/>
      <point x="378" y="49" type="curve" smooth="yes"/>
      <point x="435" y="272"/>
      <point x="490" y="399"/>
      <point x="616" y="615" type="curve" smooth="yes"/>
      <point x="630" y="639"/>
      <point x="639" y="662"/>
      <point x="639" y="684" type="curve" smooth="yes"/>
      <point x="639" y="698"/>
      <point x="632" y="709"/>
      <point x="617" y="709" type="curve" smooth="yes"/>
      <point x="600" y="709"/>
      <point x="594" y="703"/>
      <point x="559" y="649" type="curve" smooth="yes"/>
      <point x="448" y="476"/>
      <point x="374" y="284"/>
      <point x="316" y="58" type="curve"/>
      <point x="339" y="65" type="line"/>
      <point x="223" y="245"/>
      <point x="227" y="478"/>
      <point x="148" y="628" type="curve" smooth="yes"/>
      <point x="120" y="684"/>
      <point x="98" y="706"/>
      <point x="69" y="706" type="curve" smooth="yes"/>
      <point x="55" y="706"/>
      <point x="48" y="697"/>
      <point x="48" y="684" type="curve" smooth="yes"/>
      <point x="48" y="662"/>
      <point x="59" y="643"/>
      <point x="91" y="592" type="curve" smooth="yes"/>
      <point x="149" y="501"/>
      <point x="166" y="220"/>
      <point x="266" y="58" type="curve" smooth="yes"/>
    </contour>
  </outline>
</glyph>
<glyph name="W.alt1" format="2">
  <advance width="948"/>
  <anchor x="478" y="700" name="top"/>
  <anchor x="478" y="0" name="bottom"/>
  <outline>
    <contour>
      <point x="131" y="637" type="curve" smooth="yes"/>
      <point x="128" y="687"/>
      <point x="122" y="712"/>
      <point x="91" y="712" type="curve" smooth="yes"/>
      <point x="67" y="712"/>
      <point x="58" y="688"/>
      <point x="60" y="663" type="curve" smooth="yes"/>
      <point x="74" y="468"/>
      <point x="144" y="168"/>
      <point x="206" y="49" type="curve" smooth="yes"/>
      <point x="231" y="2"/>
      <point x="251" y="-8"/>
      <point x="276" y="-8" type="curve" smooth="yes"/>
      <point x="301" y="-8"/>
      <point x="321" y="11"/>
      <point x="325" y="42" type="curve" smooth="yes"/>
      <point x="353" y="243"/>
      <point x="397" y="491"/>
      <point x="496" y="593" type="curve"/>
      <point x="476" y="596" type="line"/>
      <point x="560" y="498"/>
      <point x="539" y="178"/>
      <point x="610" y="60" type="curve" smooth="yes"/>
      <point x="650" y="-6"/>
      <point x="675" y="-12"/>
      <point x="702" y="-12" type="curve" smooth="yes"/>
      <point x="721" y="-12"/>
      <point x="737" y="1"/>
      <point x="754" y="42" type="curve" smooth="yes"/>
      <point x="813" y="188"/>
      <point x="827" y="476"/>
      <point x="882" y="621" type="curve" smooth="yes"/>
      <point x="904" y="681"/>
      <point x="899" y="712"/>
      <point x="874" y="712" type="curve" smooth="yes"/>
      <point x="851" y="712"/>
      <point x="841" y="705"/>
      <point x="823" y="661" type="curve" smooth="yes"/>
      <point x="761" y="504"/>
      <point x="752" y="198"/>
      <point x="684" y="58" type="curve"/>
      <point x="693" y="62" type="line"/>
      <point x="612" y="164"/>
      <point x="627" y="361"/>
      <point x="594" y="489" type="curve" smooth="yes"/>
      <point x="561" y="610"/>
      <point x="532" y="652"/>
      <point x="487" y="652" type="curve" smooth="yes"/>
      <point x="453" y="652"/>
      <point x="423" y="621"/>
      <point x="397" y="581" type="curve" smooth="yes"/>
      <point x="335" y="486"/>
      <point x="288" y="288"/>
      <point x="259" y="64" type="curve"/>
      <point x="274" y="62" type="line"/>
      <point x="199" y="242"/>
      <point x="140" y="505"/>
    </contour>
  </outline>
</glyph>
<glyph name="acutecomb.alt3" format="2">
  <anchor x="0" y="515" name="_top"/>
  <outline>
    <contour>
      <point x="108" y="816"/>
      <point x="120" y="801"/>
      <point x="120" y="775" type="curve" smooth="yes"/>
      <point x="120" y="686"/>
      <point x="31" y="597"/>
      <point x="-41" y="597" type="curve" smooth="yes"/>
      <point x="-63" y="597"/>
      <point x="-75" y="606.8214285714"/>
      <point x="-75" y="622" type="curve" smooth="yes"/>
      <point x="-75" y="641"/>
      <point x="-59" y="650"/>
      <point x="-31" y="670" type="curve" smooth="yes"/>
      <point x="16" y="704"/>
      <point x="31" y="723"/>
      <point x="43" y="771" type="curve" smooth="yes"/>
      <point x="52" y="807"/>
      <point x="63" y="816"/>
      <point x="79" y="816" type="curve" smooth="yes"/>
    </contour>
  </outline>
</glyph>
<glyph name="asciicircum.alt3" format="2">
  <advance width="610"/>
  <outline>
    <contour>
      <point x="301" y="746" type="curve"/>
      <point x="318" y="747" type="line"/>
      <point x="152" y="570"/>
      <point x="136" y="554"/>
      <point x="106" y="554" type="curve" smooth="yes"/>
      <point x="84" y="554"/>
      <point x="67" y="568"/>
      <point x="67" y="583" type="curve" smooth="yes"/>
      <point x="67" y="605"/>
      <point x="77" y="625"/>
      <point x="206" y="734" type="curve" smooth="yes"/>
      <point x="268" y="787"/>
      <point x="271" y="809"/>
      <point x="310" y="809" type="curve" smooth="yes"/>
      <point x="339" y="809"/>
      <point x="356" y="799"/>
      <point x="387" y="757" type="curve" smooth="yes"/>
      <point x="495" y="615"/>
      <point x="544" y="614"/>
      <point x="544" y="578" type="curve" smooth="yes"/>
      <point x="544" y="562"/>
      <point x="533" y="549"/>
      <point x="513" y="549" type="curve" smooth="yes"/>
      <point x="453" y="549"/>
      <point x="427" y="589"/>
    </contour>
  </outline>
</glyph>
<glyph name="b.alt1" format="2">
  <advance width="582"/>
  <anchor x="125.0" y="800" name="top"/>
  <anchor x="308.0" y="0" name="bottom"/>
  <outline>
    <contour>
      <point x="162" y="743" type="curve" smooth="yes"/>
      <point x="162" y="640"/>
      <point x="146" y="580"/>
      <point x="146" y="388" type="curve" smooth="yes"/>
      <point x="146" y="334"/>
      <point x="151" y="269"/>
      <point x="156" y="186" type="curve" smooth="yes"/>
      <point x="159" y="130"/>
      <point x="129" y="154"/>
      <point x="140" y="217" type="curve" smooth="yes"/>
      <point x="176" y="420"/>
      <point x="277" y="493"/>
      <point x="353" y="493" type="curve" smooth="yes"/>
      <point x="449" y="493"/>
      <point x="517" y="431"/>
      <point x="517" y="285" type="curve" smooth="yes"/>
      <point x="517" y="99"/>
      <point x="354" y="-10"/>
      <point x="180" y="-10" type="curve" smooth="yes"/>
      <point x="131" y="-10"/>
      <point x="76" y="4"/>
      <point x="76" y="41" type="curve" smooth="yes"/>
      <point x="76" y="58"/>
      <point x="86" y="67"/>
      <point x="100" y="67" type="curve" smooth="yes"/>
      <point x="117" y="67"/>
      <point x="144" y="55"/>
      <point x="168" y="55" type="curve" smooth="yes"/>
      <point x="326" y="55"/>
      <point x="450" y="138"/>
      <point x="450" y="294" type="curve" smooth="yes"/>
      <point x="450" y="362"/>
      <point x="430" y="427"/>
      <point x="353" y="427" type="curve" smooth="yes"/>
      <point x="255" y="427"/>
      <point x="200" y="282"/>
      <point x="163" y="78" type="curve" smooth="yes"/>
      <point x="158" y="55"/>
      <point x="148" y="49"/>
      <point x="137" y="49" type="curve" smooth="yes"/>
      <point x="123" y="49"/>
      <point x="114" y="73"/>
      <point x="107" y="110" type="curve" smooth="yes"/>
      <point x="87" y="220"/>
      <point x="78" y="338"/>
      <point x="78" y="404" type="curve" smooth="yes"/>
      <point x="78" y="595"/>
      <point x="94" y="668"/>
      <point x="94" y="768" type="curve" smooth="yes"/>
      <point x="94" y="789"/>
      <point x="104" y="809"/>
      <point x="122" y="809" type="curve" smooth="yes"/>
      <point x="142" y="809"/>
      <point x="162" y="785"/>
    </contour>
  </outline>
</glyph>
<glyph name="backslash.alt2" format="2">
  <advance width="330"/>
  <outline>
    <contour>
      <point x="74" y="753" type="curve" smooth="yes"/>
      <point x="107" y="396"/>
      <point x="220" y="124"/>
      <point x="344" y="-140" type="curve" smooth="yes"/>
      <point x="363" y="-183"/>
      <point x="343" y="-205"/>
      <point x="313" y="-205" type="curve" smooth="yes"/>
      <point x="298" y="-205"/>
      <point x="285" y="-194"/>
      <point x="274" y="-173" type="curve" smooth="yes"/>
      <point x="141" y="107"/>
      <point x="34" y="399"/>
      <point x="-1" y="738" type="curve" smooth="yes"/>
      <point x="-7" y="788"/>
      <point x="5" y="810"/>
      <point x="32" y="810" type="curve" smooth="yes"/>
      <point x="50" y="810"/>
      <point x="70" y="792"/>
    </contour>
  </outline>
</glyph>
<glyph name="braceleft.case" format="2">
  <advance width="462"/>
  <guideline x="338" y="780" angle="0" identifier="ycUYvn9Hp7"/>
  <guideline x="336" y="-80" angle="0" identifier="6QTgGTsAZs"/>
  <outline>
    <contour>
      <point x="422" y="709" type="curve" smooth="yes"/>
      <point x="340" y="691"/>
      <point x="282" y="656"/>
      <point x="282" y="612" type="curve" smooth="yes"/>
      <point x="282.0" y="560.5031847133758"/>
      <point x="314.9363199725356" y="528.6697581324219"/>
      <point x="314" y="465" type="curve" smooth="yes"/>
      <point x="313" y="413"/>
      <point x="265" y="361"/>
      <point x="157" y="324" type="curve"/>
      <point x="158" y="348" type="line"/>
      <point x="308" y="315"/>
      <point x="349" y="259"/>
      <point x="349" y="195" type="curve" smooth="yes"/>
      <point x="349.0" y="135.41666666666669"/>
      <point x="311.0" y="119.16666666666667"/>
      <point x="311.0" y="65" type="curve" smooth="yes"/>
      <point x="311.0" y="41.0"/>
      <point x="348" y="10"/>
      <point x="425" y="-14" type="curve" smooth="yes"/>
      <point x="452" y="-22"/>
      <point x="459" y="-31"/>
      <point x="459" y="-46" type="curve" smooth="yes"/>
      <point x="459" y="-66"/>
      <point x="442" y="-80"/>
      <point x="414" y="-80" type="curve" smooth="yes"/>
      <point x="356" y="-80.0"/>
      <point x="241" y="-13"/>
      <point x="241" y="65" type="curve" smooth="yes"/>
      <point x="241.0" y="123.35483870967741"/>
      <point x="279.0" y="142.80645161290323"/>
      <point x="279" y="199" type="curve" smooth="yes"/>
      <point x="279" y="250"/>
      <point x="200" y="276"/>
      <point x="83" y="292" type="curve" smooth="yes"/>
      <point x="63" y="295"/>
      <point x="53" y="310"/>
      <point x="53" y="332" type="curve" smooth="yes"/>
      <point x="53" y="347"/>
      <point x="61" y="355"/>
      <point x="78" y="360" type="curve" smooth="yes"/>
      <point x="158" y="385"/>
      <point x="244" y="425"/>
      <point x="244" y="471" type="curve" smooth="yes"/>
      <point x="244.0" y="525.2337662337662"/>
      <point x="212.0" y="557.961038961039"/>
      <point x="212" y="615" type="curve" smooth="yes"/>
      <point x="212" y="723"/>
      <point x="377" y="780"/>
      <point x="414" y="780" type="curve" smooth="yes"/>
      <point x="442" y="780"/>
      <point x="459" y="760"/>
      <point x="459" y="735" type="curve" smooth="yes"/>
      <point x="459" y="721"/>
      <point x="447" y="715"/>
    </contour>
  </outline>
</glyph>
<glyph name="bracketangleright.case" format="2">
  <advance width="414"/>
  <guideline x="363" y="882" angle="0" identifier="ezZEnJexYK"/>
  <guideline x="304" y="780" angle="0" identifier="ODEwbBsEFv"/>
  <outline>
    <contour>
      <point x="326.0" y="472.0" type="curve" smooth="yes"/>
      <point x="290.0" y="567.0"/>
      <point x="218.0" y="657.0"/>
      <point x="194.0" y="732.0" type="curve" smooth="yes"/>
      <point x="185.0" y="760.0"/>
      <point x="175.0" y="780.0"/>
      <point x="152.0" y="780.0" type="curve" smooth="yes"/>
      <point x="130.0" y="780.0"/>
      <point x="112.0" y="759.0"/>
      <point x="123.0" y="722.0" type="curve" smooth="yes"/>
      <point x="155.0" y="611.0"/>
      <point x="265.0" y="503.0"/>
      <point x="300.0" y="325.0" type="curve"/>
      <point x="300.0" y="375.0" type="line"/>
      <point x="265.0" y="208.0"/>
      <point x="183.0" y="125.0"/>
      <point x="129.0" y="-3.0" type="curve" smooth="yes"/>
      <point x="106.0" y="-58.0"/>
      <point x="124.0" y="-80.0"/>
      <point x="150.0" y="-80.0" type="curve" smooth="yes"/>
      <point x="172.0" y="-80.0"/>
      <point x="178.0" y="-65.0"/>
      <point x="191.0" y="-34.0" type="curve" smooth="yes"/>
      <point x="230.0" y="55.0"/>
      <point x="280.0" y="128.0"/>
      <point x="324.0" y="227.0" type="curve" smooth="yes"/>
      <point x="346.0" y="280.0"/>
      <point x="354.0" y="310.0"/>
      <point x="354.0" y="350.0" type="curve" smooth="yes"/>
      <point x="354.0" y="392.0"/>
      <point x="343.0" y="431.0"/>
    </contour>
  </outline>
</glyph>
<glyph name="c.alt3" format="2">
  <advance width="482"/>
  <anchor x="270" y="485" name="top"/>
  <anchor x="270" y="0" name="bottom"/>
  <outline>
    <contour>
      <point x="444" y="94" type="curve" smooth="yes"/>
      <point x="444" y="116"/>
      <point x="437" y="124"/>
      <point x="423" y="124" type="curve" smooth="yes"/>
      <point x="393" y="124"/>
      <point x="399" y="56"/>
      <point x="266" y="56" type="curve" smooth="yes"/>
      <point x="188" y="56"/>
      <point x="124" y="115.4949494949"/>
      <point x="124" y="211" type="curve" smooth="yes"/>
      <point x="124" y="322.2727272727"/>
      <point x="211" y="427"/>
      <point x="331" y="427" type="curve" smooth="yes"/>
      <point x="360" y="427"/>
      <point x="361" y="414"/>
      <point x="382" y="414" type="curve" smooth="yes"/>
      <point x="399.1219512195" y="414"/>
      <point x="408" y="427.1578947368"/>
      <point x="408" y="444" type="curve" smooth="yes"/>
      <point x="408" y="486.5"/>
      <point x="374.5" y="495"/>
      <point x="341" y="495" type="curve" smooth="yes"/>
      <point x="187" y="495"/>
      <point x="56" y="374"/>
      <point x="56" y="220" type="curve" smooth="yes"/>
      <point x="56" y="84"/>
      <point x="146" y="-9"/>
      <point x="266" y="-9" type="curve" smooth="yes"/>
      <point x="369" y="-9"/>
      <point x="444" y="33"/>
    </contour>
  </outline>
</glyph>
<glyph name="cedillacomb.alt2" format="2">
  <anchor x="1" y="0" name="_bottom"/>
  <outline>
    <contour>
      <point x="103" y="-84" type="curve" smooth="yes"/>
      <point x="103" y="-6"/>
      <point x="50" y="45"/>
      <point x="-17" y="45" type="curve" smooth="yes"/>
      <point x="-39" y="45"/>
      <point x="-51" y="35"/>
      <point x="-51" y="4" type="curve"/>
      <point x="20" y="-13"/>
      <point x="32" y="-43.6933333333"/>
      <point x="32" y="-69" type="curve" smooth="yes"/>
      <point x="32" y="-116"/>
      <point x="8.6057584753" y="-139.915486396"/>
      <point x="-88" y="-145" type="curve" smooth="yes"/>
      <point x="-126.9856722993" y="-146.9992652461"/>
      <point x="-136" y="-154"/>
      <point x="-136" y="-172" type="curve" smooth="yes"/>
      <point x="-136" y="-198"/>
      <point x="-115" y="-214"/>
      <point x="-75" y="-214" type="curve" smooth="yes"/>
      <point x="39" y="-214"/>
      <point x="103" y="-152"/>
    </contour>
  </outline>
</glyph>
<glyph name="equal.alt3" format="2">
  <advance width="700"/>
  <outline>
    <contour>
      <point x="172" y="403" type="curve" smooth="yes"/>
      <point x="117" y="392"/>
      <point x="96" y="404"/>
      <point x="96" y="433" type="curve" smooth="yes"/>
      <point x="96" y="454"/>
      <point x="112" y="467"/>
      <point x="165" y="475" type="curve" smooth="yes"/>
      <point x="290" y="497"/>
      <point x="435" y="499"/>
      <point x="519" y="499" type="curve" smooth="yes"/>
      <point x="583" y="499"/>
      <point x="602" y="484"/>
      <point x="602" y="464" type="curve" smooth="yes"/>
      <point x="602" y="447"/>
      <point x="590" y="436"/>
      <point x="567" y="436" type="curve" smooth="yes"/>
      <point x="381" y="436"/>
      <point x="289" y="426"/>
    </contour>
    <contour>
      <point x="168" y="165" type="curve" smooth="yes"/>
      <point x="115" y="147"/>
      <point x="95" y="165"/>
      <point x="95" y="188" type="curve" smooth="yes"/>
      <point x="95" y="206"/>
      <point x="103" y="225"/>
      <point x="154" y="239" type="curve" smooth="yes"/>
      <point x="274" y="270"/>
      <point x="402" y="287"/>
      <point x="521" y="287" type="curve" smooth="yes"/>
      <point x="559" y="287"/>
      <point x="580" y="271"/>
      <point x="580" y="252" type="curve" smooth="yes"/>
      <point x="580" y="233"/>
      <point x="570" y="224"/>
      <point x="545" y="224" type="curve" smooth="yes"/>
      <point x="368" y="224"/>
      <point x="268" y="200"/>
    </contour>
  </outline>
</glyph>
<glyph name="eth.alt1" format="2">
  <advance width="590"/>
  <outline>
    <contour>
      <point x="174" y="730" type="curve" smooth="yes"/>
      <point x="354.87986179739994" y="586.5435578848208"/>
      <point x="458.0" y="389.2810933290514"/>
      <point x="458" y="239" type="curve" smooth="yes"/>
      <point x="458" y="101"/>
      <point x="387" y="55"/>
      <point x="289" y="55" type="curve" smooth="yes"/>
      <point x="209.0" y="55.0"/>
      <point x="133.0" y="97.73972602739725"/>
      <point x="133" y="211" type="curve" smooth="yes"/>
      <point x="133.0" y="279"/>
      <point x="167.0" y="355.0"/>
      <point x="270" y="355" type="curve" smooth="yes"/>
      <point x="394" y="355"/>
      <point x="412" y="289"/>
      <point x="448" y="289" type="curve" smooth="yes"/>
      <point x="465" y="289"/>
      <point x="470" y="297"/>
      <point x="470" y="315" type="curve" smooth="yes"/>
      <point x="470" y="364"/>
      <point x="396" y="420"/>
      <point x="266" y="420" type="curve" smooth="yes"/>
      <point x="131.0" y="420.0"/>
      <point x="65.0" y="324"/>
      <point x="65" y="200" type="curve" smooth="yes"/>
      <point x="65.0" y="95.0"/>
      <point x="141.0" y="-10.0"/>
      <point x="289" y="-10" type="curve" smooth="yes"/>
      <point x="455" y="-10"/>
      <point x="525" y="82"/>
      <point x="525" y="239" type="curve" smooth="yes"/>
      <point x="525.0" y="403.08863198458573"/>
      <point x="417.98968893059026" y="616.3503032478131"/>
      <point x="218" y="778" type="curve" smooth="yes"/>
      <point x="188" y="801"/>
      <point x="174" y="810"/>
      <point x="160" y="810" type="curve" smooth="yes"/>
      <point x="144" y="810.0"/>
      <point x="131.0" y="801.0"/>
      <point x="131" y="783" type="curve" smooth="yes"/>
      <point x="131.0" y="767.0"/>
      <point x="136" y="759"/>
    </contour>
    <contour>
      <point x="130" y="521" type="curve" smooth="yes"/>
      <point x="233.29749283386855" y="563.5969042613891"/>
      <point x="312.7648123801712" y="583.1832827274982"/>
      <point x="469" y="597" type="curve" smooth="yes"/>
      <point x="494" y="599"/>
      <point x="504" y="606"/>
      <point x="504" y="625" type="curve" smooth="yes"/>
      <point x="504.0" y="643"/>
      <point x="483" y="658.0"/>
      <point x="458" y="658" type="curve" smooth="yes"/>
      <point x="362.9864864864865" y="658.0"/>
      <point x="252.25066024194024" y="631.5342113466975"/>
      <point x="142" y="593" type="curve" smooth="yes"/>
      <point x="89" y="574"/>
      <point x="81.0" y="560"/>
      <point x="81.0" y="539" type="curve" smooth="yes"/>
      <point x="81.0" y="517"/>
      <point x="102.0" y="510"/>
    </contour>
  </outline>
</glyph>
<glyph name="f.alt3" format="2">
  <advance width="349"/>
  <anchor x="241.0" y="800" name="top"/>
  <anchor x="124.0" y="0" name="bottom"/>
  <outline>
    <contour>
      <point x="158" y="419"/>
      <point x="184" y="434"/>
      <point x="288" y="434" type="curve" smooth="yes"/>
      <point x="314" y="434"/>
      <point x="325" y="443"/>
      <point x="325" y="458" type="curve" smooth="yes"/>
      <point x="325" y="476"/>
      <point x="311" y="494"/>
      <point x="281" y="494" type="curve" smooth="yes"/>
      <point x="229" y="494"/>
      <point x="186" y="489"/>
      <point x="143" y="481" type="curve" smooth="yes"/>
      <point x="116" y="475"/>
      <point x="106" y="457"/>
      <point x="106" y="440" type="curve" smooth="yes"/>
      <point x="106" y="426"/>
      <point x="117" y="419"/>
      <point x="130" y="419" type="curve" smooth="yes"/>
    </contour>
    <contour>
      <point x="132" y="-13" type="curve" smooth="yes"/>
      <point x="150" y="-13"/>
      <point x="159" y="-4"/>
      <point x="159" y="29" type="curve" smooth="yes"/>
      <point x="159" y="227"/>
      <point x="141" y="337"/>
      <point x="141" y="446" type="curve" smooth="yes"/>
      <point x="141" y="603"/>
      <point x="166" y="716"/>
      <point x="335" y="750" type="curve" smooth="yes"/>
      <point x="359" y="755"/>
      <point x="369" y="768"/>
      <point x="369" y="783" type="curve" smooth="yes"/>
      <point x="369" y="801"/>
      <point x="347" y="810"/>
      <point x="331" y="810" type="curve" smooth="yes"/>
      <point x="189" y="810"/>
      <point x="71" y="696"/>
      <point x="71" y="489" type="curve" smooth="yes"/>
      <point x="71" y="314"/>
      <point x="89" y="246"/>
      <point x="89" y="46" type="curve" smooth="yes"/>
      <point x="89" y="9"/>
      <point x="111" y="-13"/>
    </contour>
  </outline>
</glyph>
<glyph name="four.alt2" format="2">
  <advance width="700"/>
  <outline>
    <contour>
      <point x="448" y="157" type="curve" smooth="yes"/>
      <point x="448" y="277"/>
      <point x="495" y="396"/>
      <point x="495" y="543" type="curve" smooth="yes"/>
      <point x="495" y="596"/>
      <point x="490" y="632"/>
      <point x="480" y="662" type="curve"/>
      <point x="508" y="659" type="line"/>
      <point x="323" y="574"/>
      <point x="192.93385816439252" y="404.23391623595194"/>
      <point x="138" y="214" type="curve"/>
      <point x="114" y="252" type="line"/>
      <point x="149" y="237"/>
      <point x="156" y="236"/>
      <point x="175" y="236" type="curve" smooth="yes"/>
      <point x="304.2915601023018" y="236.0"/>
      <point x="410.0" y="290.0"/>
      <point x="586" y="290" type="curve" smooth="yes"/>
      <point x="633.0" y="290.0"/>
      <point x="659.0" y="272.7368421052632"/>
      <point x="659" y="249" type="curve" smooth="yes"/>
      <point x="659" y="233"/>
      <point x="645" y="222"/>
      <point x="612" y="222" type="curve" smooth="yes"/>
      <point x="424.5566037735849" y="222.0"/>
      <point x="316.6981132075472" y="170.0"/>
      <point x="168" y="170" type="curve" smooth="yes"/>
      <point x="116" y="170"/>
      <point x="83" y="199"/>
      <point x="83" y="242" type="curve" smooth="yes"/>
      <point x="83" y="267"/>
      <point x="89" y="286"/>
      <point x="107" y="329" type="curve" smooth="yes"/>
      <point x="197.67097652427304" y="546.4042732570638"/>
      <point x="402.750656167979" y="715.0"/>
      <point x="508" y="715" type="curve" smooth="yes"/>
      <point x="548" y="715"/>
      <point x="562" y="663"/>
      <point x="562" y="545" type="curve" smooth="yes"/>
      <point x="562" y="403"/>
      <point x="515" y="298"/>
      <point x="515" y="148" type="curve" smooth="yes"/>
      <point x="515" y="90"/>
      <point x="525" y="65"/>
      <point x="525" y="33" type="curve" smooth="yes"/>
      <point x="525" y="5"/>
      <point x="513" y="-11"/>
      <point x="495" y="-11" type="curve" smooth="yes"/>
      <point x="461" y="-11"/>
      <point x="448" y="39"/>
    </contour>
  </outline>
</glyph>
<glyph name="g.alt2" format="2">
  <advance width="603"/>
  <anchor x="289" y="485" name="top"/>
  <anchor x="364" y="-250" name="bottom"/>
  <outline>
    <contour>
      <point x="433" y="463" type="curve" smooth="yes"/>
      <point x="464" y="463"/>
      <point x="479" y="428"/>
      <point x="482" y="390" type="curve" smooth="yes"/>
      <point x="496" y="221"/>
      <point x="548" y="142"/>
      <point x="548" y="-59" type="curve" smooth="yes"/>
      <point x="548" y="-184"/>
      <point x="486" y="-260"/>
      <point x="378" y="-260" type="curve" smooth="yes"/>
      <point x="190" y="-260"/>
      <point x="115" y="-149"/>
      <point x="115" y="-71" type="curve" smooth="yes"/>
      <point x="115" y="-43"/>
      <point x="133" y="-19"/>
      <point x="155" y="-19" type="curve" smooth="yes"/>
      <point x="173" y="-19"/>
      <point x="181" y="-30"/>
      <point x="181" y="-51" type="curve" smooth="yes"/>
      <point x="181" y="-138"/>
      <point x="265" y="-196"/>
      <point x="370" y="-196" type="curve" smooth="yes"/>
      <point x="455" y="-196"/>
      <point x="481" y="-143"/>
      <point x="481" y="-48" type="curve" smooth="yes"/>
      <point x="481" y="112"/>
      <point x="429" y="208"/>
      <point x="417" y="328" type="curve"/>
      <point x="449" y="317" type="line"/>
      <point x="429" y="163"/>
      <point x="348" y="91"/>
      <point x="235" y="91" type="curve" smooth="yes"/>
      <point x="126" y="91"/>
      <point x="58" y="151"/>
      <point x="58" y="267" type="curve" smooth="yes"/>
      <point x="58" y="386"/>
      <point x="164" y="494"/>
      <point x="281" y="494" type="curve" smooth="yes"/>
      <point x="379" y="494"/>
      <point x="413" y="444"/>
      <point x="413" y="397" type="curve" smooth="yes"/>
      <point x="413" y="384"/>
      <point x="402" y="363"/>
      <point x="389" y="363" type="curve" smooth="yes"/>
      <point x="349" y="363"/>
      <point x="365" y="428"/>
      <point x="292" y="428" type="curve" smooth="yes"/>
      <point x="199" y="428"/>
      <point x="125" y="348"/>
      <point x="125" y="262" type="curve" smooth="yes"/>
      <point x="125" y="192"/>
      <point x="159" y="154"/>
      <point x="234" y="154" type="curve" smooth="yes"/>
      <point x="326" y="154"/>
      <point x="400" y="225"/>
      <point x="400" y="424" type="curve" smooth="yes"/>
      <point x="400" y="451"/>
      <point x="408" y="463"/>
    </contour>
  </outline>
</glyph>
<glyph name="grave.alt2" format="2">
  <advance width="360"/>
  <outline>
    <contour>
      <point x="49" y="715" type="curve" smooth="yes"/>
      <point x="93" y="632"/>
      <point x="169" y="538"/>
      <point x="234" y="495" type="curve" smooth="yes"/>
      <point x="253" y="483"/>
      <point x="270" y="477"/>
      <point x="284" y="477" type="curve" smooth="yes"/>
      <point x="317.6785886086" y="477"/>
      <point x="342.3747663521" y="500.6252336479"/>
      <point x="287" y="556" type="curve" smooth="yes"/>
      <point x="244" y="600"/>
      <point x="191" y="640"/>
      <point x="147" y="736" type="curve" smooth="yes"/>
      <point x="124" y="786"/>
      <point x="104" y="809"/>
      <point x="72" y="809" type="curve" smooth="yes"/>
      <point x="38" y="809"/>
      <point x="8" y="793"/>
    </contour>
  </outline>
</glyph>
<glyph name="greater.alt2" format="2">
  <advance width="700"/>
  <outline>
    <contour>
      <point x="170" y="144" type="curve" smooth="yes"/>
      <point x="278" y="173"/>
      <point x="432" y="234"/>
      <point x="532" y="306" type="curve"/>
      <point x="525" y="269" type="line"/>
      <point x="469" y="336"/>
      <point x="295" y="404"/>
      <point x="129" y="430" type="curve" smooth="yes"/>
      <point x="107" y="434"/>
      <point x="99" y="444"/>
      <point x="99" y="456" type="curve" smooth="yes"/>
      <point x="99" y="481"/>
      <point x="120" y="496"/>
      <point x="138" y="496" type="curve" smooth="yes"/>
      <point x="148" y="496"/>
      <point x="156" y="495"/>
      <point x="194" y="489" type="curve" smooth="yes"/>
      <point x="349" y="462"/>
      <point x="534" y="385"/>
      <point x="575" y="318" type="curve" smooth="yes"/>
      <point x="587" y="299"/>
      <point x="588" y="289"/>
      <point x="588" y="280" type="curve" smooth="yes"/>
      <point x="588" y="270"/>
      <point x="587" y="262"/>
      <point x="570" y="248" type="curve" smooth="yes"/>
      <point x="507" y="193"/>
      <point x="329" y="113"/>
      <point x="226" y="86" type="curve" smooth="yes"/>
      <point x="190" y="75"/>
      <point x="179" y="74"/>
      <point x="167" y="74" type="curve" smooth="yes"/>
      <point x="145" y="74"/>
      <point x="135" y="92"/>
      <point x="135" y="112" type="curve" smooth="yes"/>
      <point x="135" y="124"/>
      <point x="143" y="136"/>
    </contour>
  </outline>
</glyph>
<glyph name="h.alt1" format="2">
  <advance width="613"/>
  <anchor x="182" y="800" name="top"/>
  <anchor x="323" y="0" name="bottom"/>
  <outline>
    <contour>
      <point x="520" y="-10" type="curve" smooth="yes"/>
      <point x="536" y="-10"/>
      <point x="550" y="4"/>
      <point x="550" y="20" type="curve" smooth="yes"/>
      <point x="550" y="32"/>
      <point x="545" y="43"/>
      <point x="540" y="53" type="curve" smooth="yes"/>
      <point x="520" y="88"/>
      <point x="509" y="132"/>
      <point x="496" y="268" type="curve" smooth="yes"/>
      <point x="483" y="410"/>
      <point x="466" y="494"/>
      <point x="389" y="494" type="curve" smooth="yes"/>
      <point x="306" y="494"/>
      <point x="234" y="398"/>
      <point x="127" y="108" type="curve"/>
      <point x="145" y="106" type="line"/>
      <point x="141" y="295"/>
      <point x="193" y="490"/>
      <point x="213" y="644" type="curve" smooth="yes"/>
      <point x="228" y="765"/>
      <point x="217" y="809"/>
      <point x="182" y="810" type="curve" smooth="yes"/>
      <point x="162" y="810"/>
      <point x="153" y="792"/>
      <point x="150" y="773" type="curve" smooth="yes"/>
      <point x="145" y="732"/>
      <point x="149" y="681"/>
      <point x="142" y="625" type="curve" smooth="yes"/>
      <point x="126" y="494"/>
      <point x="75" y="333"/>
      <point x="75" y="95" type="curve" smooth="yes"/>
      <point x="75" y="20"/>
      <point x="97" y="-10"/>
      <point x="123" y="-10" type="curve" smooth="yes"/>
      <point x="144" y="-10"/>
      <point x="160" y="-2"/>
      <point x="169" y="28" type="curve" smooth="yes"/>
      <point x="242" y="279"/>
      <point x="343" y="429"/>
      <point x="388" y="429" type="curve"/>
      <point x="413" y="392"/>
      <point x="424" y="340"/>
      <point x="433" y="210" type="curve" smooth="yes"/>
      <point x="441" y="96"/>
      <point x="480" y="-10"/>
    </contour>
  </outline>
</glyph>
<glyph name="hungarumlautcmb.alt3" format="2">
  <anchor x="0" y="515" name="_top"/>
  <outline>
    <contour>
      <point x="26" y="764" type="curve" smooth="yes"/>
      <point x="26" y="689"/>
      <point x="-56" y="587"/>
      <point x="-99" y="587" type="curve" smooth="yes"/>
      <point x="-113" y="587"/>
      <point x="-123" y="595"/>
      <point x="-123" y="610" type="curve" smooth="yes"/>
      <point x="-123" y="623"/>
      <point x="-118" y="637"/>
      <point x="-97" y="668" type="curve" smooth="yes"/>
      <point x="-69" y="709"/>
      <point x="-60.2325214116" y="727.0001435729"/>
      <point x="-50" y="767" type="curve" smooth="yes"/>
      <point x="-44" y="793"/>
      <point x="-32" y="803"/>
      <point x="-14" y="803" type="curve" smooth="yes"/>
      <point x="11" y="803"/>
      <point x="26" y="791"/>
    </contour>
    <contour>
      <point x="200" y="776" type="curve" smooth="yes"/>
      <point x="200" y="685.0756756757"/>
      <point x="127" y="592"/>
      <point x="78" y="592" type="curve" smooth="yes"/>
      <point x="63" y="592"/>
      <point x="55" y="599"/>
      <point x="55" y="613" type="curve" smooth="yes"/>
      <point x="55" y="629"/>
      <point x="62" y="643"/>
      <point x="76" y="665" type="curve" smooth="yes"/>
      <point x="101" y="705"/>
      <point x="111.9172375577" y="731.7673831802"/>
      <point x="124" y="779" type="curve" smooth="yes"/>
      <point x="131" y="807"/>
      <point x="142" y="818"/>
      <point x="161" y="818" type="curve" smooth="yes"/>
      <point x="185" y="818"/>
      <point x="200" y="805"/>
    </contour>
  </outline>
</glyph>
<glyph name="idotless.alt3" format="2">
  <advance width="276"/>
  <anchor x="136" y="485" name="top"/>
  <anchor x="136" y="0" name="bottom"/>
  <anchor x="159" y="0" name="ogonek"/>
  <outline>
    <contour>
      <point x="143" y="-11" type="curve" smooth="yes"/>
      <point x="159" y="-11"/>
      <point x="167" y="0"/>
      <point x="167" y="17" type="curve" smooth="yes"/>
      <point x="167" y="101"/>
      <point x="176" y="367"/>
      <point x="175" y="445" type="curve" smooth="yes"/>
      <point x="174" y="478"/>
      <point x="154" y="496"/>
      <point x="130" y="496" type="curve" smooth="yes"/>
      <point x="109" y="496"/>
      <point x="99" y="480"/>
      <point x="99" y="456" type="curve" smooth="yes"/>
      <point x="99" y="343"/>
      <point x="102" y="276"/>
      <point x="102" y="53" type="curve" smooth="yes"/>
      <point x="102" y="20"/>
      <point x="120" y="-11"/>
    </contour>
  </outline>
</glyph>
<glyph name="jdotless.alt3" format="2">
  <advance width="241"/>
  <anchor x="111" y="485" name="top"/>
  <outline>
    <contour>
      <point x="146" y="444" type="curve" smooth="yes"/>
      <point x="176" y="266"/>
      <point x="189.0" y="124.34439834024897"/>
      <point x="189" y="-60" type="curve" smooth="yes"/>
      <point x="189.0" y="-191.8181818181818"/>
      <point x="138" y="-260"/>
      <point x="60" y="-260" type="curve" smooth="yes"/>
      <point x="-7.0" y="-260.0"/>
      <point x="-45.0" y="-230.5263157894737"/>
      <point x="-45" y="-200" type="curve" smooth="yes"/>
      <point x="-45.0" y="-181.93548387096774"/>
      <point x="-33.0" y="-172.0"/>
      <point x="-15" y="-172" type="curve" smooth="yes"/>
      <point x="10.999999999999996" y="-172.0"/>
      <point x="24.0" y="-195.0"/>
      <point x="55" y="-195" type="curve" smooth="yes"/>
      <point x="97.35632183908046" y="-195.0"/>
      <point x="122.0" y="-154.0"/>
      <point x="122" y="-72" type="curve" smooth="yes"/>
      <point x="122" y="260"/>
      <point x="74" y="393"/>
      <point x="74" y="457" type="curve" smooth="yes"/>
      <point x="74.0" y="485.0"/>
      <point x="90.46875" y="496.0"/>
      <point x="105" y="496" type="curve" smooth="yes"/>
      <point x="123.45" y="496.0"/>
      <point x="138.99562746766077" y="488.0274844889895"/>
    </contour>
  </outline>
</glyph>
<glyph name="less.alt1" format="2">
  <advance width="700"/>
  <outline>
    <contour>
      <point x="521" y="426" type="curve" smooth="yes"/>
      <point x="413.2120305594" y="396.6032810617"/>
      <point x="260" y="339"/>
      <point x="159" y="264" type="curve"/>
      <point x="166" y="301" type="line"/>
      <point x="230" y="230"/>
      <point x="396.2624226371" y="166.4787845491"/>
      <point x="562" y="140" type="curve" smooth="yes"/>
      <point x="584" y="136"/>
      <point x="592" y="126"/>
      <point x="592" y="114" type="curve" smooth="yes"/>
      <point x="592" y="89"/>
      <point x="571" y="74"/>
      <point x="553" y="74" type="curve" smooth="yes"/>
      <point x="543" y="74"/>
      <point x="535" y="75"/>
      <point x="497" y="81" type="curve" smooth="yes"/>
      <point x="342" y="108"/>
      <point x="170" y="185"/>
      <point x="122" y="247" type="curve" smooth="yes"/>
      <point x="109" y="264"/>
      <point x="105" y="274"/>
      <point x="105" y="289" type="curve" smooth="yes"/>
      <point x="105" y="299"/>
      <point x="107" y="311"/>
      <point x="124" y="325" type="curve" smooth="yes"/>
      <point x="187" y="380"/>
      <point x="362" y="457"/>
      <point x="465" y="484" type="curve" smooth="yes"/>
      <point x="501" y="495"/>
      <point x="510" y="494"/>
      <point x="522" y="494" type="curve" smooth="yes"/>
      <point x="544" y="494"/>
      <point x="556" y="478"/>
      <point x="556" y="458" type="curve" smooth="yes"/>
      <point x="556" y="446"/>
      <point x="548" y="434"/>
    </contour>
  </outline>
</glyph>
<glyph name="macroncomb.alt2" format="2">
  <anchor x="0" y="515" name="_top"/>
  <outline>
    <contour>
      <point x="-127" y="679" type="curve" smooth="yes"/>
      <point x="-91" y="679"/>
      <point x="-33" y="689"/>
      <point x="129" y="689" type="curve" smooth="yes"/>
      <point x="161" y="689"/>
      <point x="180" y="702.6551724138"/>
      <point x="180" y="725" type="curve" smooth="yes"/>
      <point x="180" y="738"/>
      <point x="163.2380952381" y="759"/>
      <point x="116" y="759" type="curve" smooth="yes"/>
      <point x="27.2786885246" y="759"/>
      <point x="-54.8419011506" y="756.7786101994"/>
      <point x="-148" y="745" type="curve" smooth="yes"/>
      <point x="-173" y="742"/>
      <point x="-180" y="727"/>
      <point x="-180" y="716" type="curve" smooth="yes"/>
      <point x="-180" y="697.5"/>
      <point x="-161" y="679"/>
    </contour>
  </outline>
</glyph>
<glyph name="p.alt2" format="2">
  <advance width="550"/>
  <anchor x="269" y="485" name="top"/>
  <anchor x="116" y="-250" name="bottom"/>
  <outline>
    <contour>
      <point x="131" y="384" type="curve" smooth="yes"/>
      <point x="131" y="223"/>
      <point x="187" y="101"/>
      <point x="187" y="-46" type="curve" smooth="yes"/>
      <point x="187" y="-186"/>
      <point x="157" y="-261"/>
      <point x="113" y="-261" type="curve" smooth="yes"/>
      <point x="93" y="-261"/>
      <point x="84" y="-254"/>
      <point x="84" y="-233" type="curve" smooth="yes"/>
      <point x="84" y="-200"/>
      <point x="119" y="-181"/>
      <point x="119" y="-50" type="curve" smooth="yes"/>
      <point x="119" y="93"/>
      <point x="61" y="249"/>
      <point x="61" y="406" type="curve" smooth="yes"/>
      <point x="61" y="441"/>
      <point x="72" y="456"/>
      <point x="94" y="456" type="curve" smooth="yes"/>
      <point x="117.7179487179" y="456"/>
      <point x="131" y="423"/>
    </contour>
    <contour>
      <point x="76" y="473"/>
      <point x="107" y="494"/>
      <point x="189" y="494" type="curve" smooth="yes"/>
      <point x="362" y="494"/>
      <point x="492" y="376"/>
      <point x="492" y="191" type="curve" smooth="yes"/>
      <point x="492" y="62"/>
      <point x="408" y="-10"/>
      <point x="294" y="-10" type="curve" smooth="yes"/>
      <point x="204" y="-10"/>
      <point x="136" y="29"/>
      <point x="136" y="67" type="curve" smooth="yes"/>
      <point x="136" y="81"/>
      <point x="140" y="92"/>
      <point x="156" y="92" type="curve" smooth="yes"/>
      <point x="180" y="92"/>
      <point x="183" y="56"/>
      <point x="289" y="56" type="curve" smooth="yes"/>
      <point x="369" y="56"/>
      <point x="424" y="94"/>
      <point x="424" y="197" type="curve" smooth="yes"/>
      <point x="424" y="335"/>
      <point x="327" y="429"/>
      <point x="196" y="429" type="curve" smooth="yes"/>
      <point x="161" y="429"/>
      <point x="124" y="418"/>
      <point x="104" y="418" type="curve" smooth="yes"/>
      <point x="85" y="418"/>
      <point x="76" y="432"/>
      <point x="76" y="447" type="curve" smooth="yes"/>
    </contour>
  </outline>
</glyph>
<glyph name="q.alt1" format="2">
  <advance width="558"/>
  <anchor x="309" y="485" name="top"/>
  <anchor x="451" y="-250" name="bottom"/>
  <outline>
    <contour>
      <point x="205" y="-10" type="curve" smooth="yes"/>
      <point x="293" y="-10"/>
      <point x="387" y="50"/>
      <point x="432" y="155" type="curve"/>
      <point x="412" y="175" type="line"/>
      <point x="405.6234225467" y="-2.4814057842"/>
      <point x="417" y="-11"/>
      <point x="417" y="-214" type="curve" smooth="yes"/>
      <point x="417.0" y="-248.0"/>
      <point x="430.5882352941176" y="-260.0"/>
      <point x="450" y="-260" type="curve" smooth="yes"/>
      <point x="469.2087912087912" y="-260.0"/>
      <point x="500.7259932164455" y="-238.22054204529996"/>
      <point x="542" y="-205" type="curve" smooth="yes"/>
      <point x="566.5496495818714" y="-183.51905661586244"/>
      <point x="575.0" y="-169.98214285714286"/>
      <point x="575" y="-152" type="curve" smooth="yes"/>
      <point x="575.0" y="-135.45454545454544"/>
      <point x="564" y="-124"/>
      <point x="549" y="-124" type="curve" smooth="yes"/>
      <point x="532" y="-124"/>
      <point x="520.7707867507683" y="-142.1655429022229"/>
      <point x="467" y="-181" type="curve"/>
      <point x="483" y="-183" type="line"/>
      <point x="483" y="-14.7568238213"/>
      <point x="470" y="41"/>
      <point x="476" y="228" type="curve"/>
      <point x="488" y="266"/>
      <point x="492" y="291.7659574468"/>
      <point x="492" y="324" type="curve" smooth="yes"/>
      <point x="492" y="348.4444444444"/>
      <point x="481.2941176471" y="368"/>
      <point x="464" y="368" type="curve" smooth="yes"/>
      <point x="442" y="368"/>
      <point x="430" y="356"/>
      <point x="426" y="335" type="curve" smooth="yes"/>
      <point x="392" y="161"/>
      <point x="306" y="55"/>
      <point x="205" y="55" type="curve" smooth="yes"/>
      <point x="145.2142857143" y="55"/>
      <point x="112" y="91.064516129"/>
      <point x="112" y="159" type="curve" smooth="yes"/>
      <point x="112" y="288.6"/>
      <point x="213.5153061224" y="429"/>
      <point x="309" y="429" type="curve" smooth="yes"/>
      <point x="350" y="429"/>
      <point x="367" y="412"/>
      <point x="395" y="370" type="curve" smooth="yes"/>
      <point x="404.0213272539" y="355.3403432125"/>
      <point x="415" y="347"/>
      <point x="429" y="347" type="curve" smooth="yes"/>
      <point x="444" y="347"/>
      <point x="457" y="360.59375"/>
      <point x="457" y="376" type="curve" smooth="yes"/>
      <point x="457" y="428.0625"/>
      <point x="396" y="495"/>
      <point x="309" y="495" type="curve" smooth="yes"/>
      <point x="179" y="495"/>
      <point x="45" y="325.6416938111"/>
      <point x="45" y="168" type="curve" smooth="yes"/>
      <point x="45" y="61.0202020202"/>
      <point x="98" y="-10"/>
    </contour>
  </outline>
</glyph>
<glyph name="r.alt2" format="2">
  <advance width="453"/>
  <anchor x="250" y="485" name="top"/>
  <anchor x="152" y="0" name="bottom"/>
  <outline>
    <contour>
      <point x="153" y="-12" type="curve" smooth="yes"/>
      <point x="181" y="-12"/>
      <point x="189" y="4"/>
      <point x="193" y="64" type="curve" smooth="yes"/>
      <point x="207" y="266"/>
      <point x="245" y="412"/>
      <point x="380" y="436" type="curve" smooth="yes"/>
      <point x="402" y="439"/>
      <point x="411" y="455"/>
      <point x="411" y="469" type="curve" smooth="yes"/>
      <point x="411" y="484"/>
      <point x="403" y="497"/>
      <point x="377" y="497" type="curve" smooth="yes"/>
      <point x="279" y="497"/>
      <point x="157" y="412"/>
      <point x="146" y="126" type="curve"/>
      <point x="169" y="84" type="line"/>
      <point x="181" y="410"/>
      <point x="153" y="490"/>
      <point x="115" y="490" type="curve" smooth="yes"/>
      <point x="94" y="490"/>
      <point x="83" y="473.8620689655"/>
      <point x="83" y="451" type="curve" smooth="yes"/>
      <point x="83" y="433.7777777778"/>
      <point x="85.4032270483" y="420.2311776903"/>
      <point x="93" y="389" type="curve" smooth="yes"/>
      <point x="110" y="320"/>
      <point x="115" y="175"/>
      <point x="115" y="47" type="curve" smooth="yes"/>
      <point x="115" y="15"/>
      <point x="133" y="-12"/>
    </contour>
  </outline>
</glyph>
<glyph name="ringcomb.alt1" format="2">
  <anchor x="0" y="515" name="_top"/>
  <outline>
    <contour>
      <point x="-6" y="583" type="curve" smooth="yes"/>
      <point x="87" y="583"/>
      <point x="158" y="652"/>
      <point x="158" y="745" type="curve" smooth="yes"/>
      <point x="158" y="832"/>
      <point x="98" y="892"/>
      <point x="-5" y="892" type="curve" smooth="yes"/>
      <point x="-87" y="892"/>
      <point x="-133" y="853.2282608696"/>
      <point x="-133" y="805" type="curve" smooth="yes"/>
      <point x="-133" y="786"/>
      <point x="-125" y="783"/>
      <point x="-108" y="783" type="curve" smooth="yes"/>
      <point x="-81.2454545455" y="783"/>
      <point x="-74.3090909091" y="829"/>
      <point x="1" y="829" type="curve" smooth="yes"/>
      <point x="53.6117647059" y="829"/>
      <point x="87" y="794"/>
      <point x="87" y="747" type="curve" smooth="yes"/>
      <point x="87" y="682"/>
      <point x="52" y="646"/>
      <point x="-14" y="646" type="curve" smooth="yes"/>
      <point x="-74" y="646"/>
      <point x="-117" y="681"/>
      <point x="-117" y="736" type="curve" smooth="yes"/>
      <point x="-117" y="786"/>
      <point x="-99" y="817"/>
      <point x="-41" y="838" type="curve" smooth="yes"/>
      <point x="-15" y="847"/>
      <point x="-6" y="855"/>
      <point x="-6" y="869" type="curve" smooth="yes"/>
      <point x="-6" y="889"/>
      <point x="-14" y="899"/>
      <point x="-36" y="899" type="curve" smooth="yes"/>
      <point x="-117" y="899"/>
      <point x="-188" y="825"/>
      <point x="-188" y="745" type="curve" smooth="yes"/>
      <point x="-188" y="647"/>
      <point x="-122" y="583"/>
    </contour>
  </outline>
</glyph>
<glyph name="six.alt3" format="2">
  <advance width="700"/>
  <outline>
    <contour>
      <point x="429" y="633" type="curve" smooth="yes"/>
      <point x="254.8729589748" y="505.1726346231"/>
      <point x="152" y="373.3181818182"/>
      <point x="152" y="239" type="curve" smooth="yes"/>
      <point x="152" y="101"/>
      <point x="235.691588785" y="55"/>
      <point x="351" y="55" type="curve" smooth="yes"/>
      <point x="450.6243093923" y="55"/>
      <point x="547" y="92.6583850932"/>
      <point x="547" y="196" type="curve" smooth="yes"/>
      <point x="547" y="252.4949494949"/>
      <point x="505.5159235669" y="315"/>
      <point x="380" y="315" type="curve" smooth="yes"/>
      <point x="233.9545454545" y="315"/>
      <point x="212" y="281"/>
      <point x="170" y="281" type="curve" smooth="yes"/>
      <point x="153" y="281"/>
      <point x="148" y="289"/>
      <point x="148" y="307" type="curve" smooth="yes"/>
      <point x="148" y="341"/>
      <point x="233.3821138211" y="380"/>
      <point x="384" y="380" type="curve" smooth="yes"/>
      <point x="538.6968325792" y="380"/>
      <point x="615" y="294.2"/>
      <point x="615" y="185" type="curve" smooth="yes"/>
      <point x="615" y="87.9534883721"/>
      <point x="525.9397590361" y="-10"/>
      <point x="351" y="-10" type="curve" smooth="yes"/>
      <point x="163.5693950178" y="-10"/>
      <point x="85" y="82"/>
      <point x="85" y="239" type="curve" smooth="yes"/>
      <point x="85" y="385.6651480638"/>
      <point x="192.8589384156" y="541.1755680699"/>
      <point x="385" y="680" type="curve" smooth="yes"/>
      <point x="418" y="703"/>
      <point x="428" y="711"/>
      <point x="446" y="711" type="curve" smooth="yes"/>
      <point x="459" y="711"/>
      <point x="468" y="701"/>
      <point x="468" y="686" type="curve" smooth="yes"/>
      <point x="468" y="665"/>
      <point x="460" y="655"/>
    </contour>
  </outline>
</glyph>
<glyph name="tcaron.alt3" format="2">
  <advance width="443"/>
  <outline>
    <contour>
      <point x="401" y="792"/>
      <point x="381" y="809"/>
      <point x="349" y="809" type="curve" smooth="yes"/>
      <point x="323.0" y="809.0"/>
      <point x="312.0" y="793"/>
      <point x="312" y="758" type="curve" smooth="yes"/>
      <point x="312" y="719"/>
      <point x="306" y="690"/>
      <point x="289" y="658" type="curve" smooth="yes"/>
      <point x="272" y="625"/>
      <point x="269" y="615"/>
      <point x="269" y="602" type="curve" smooth="yes"/>
      <point x="269.0" y="587.0"/>
      <point x="279.0" y="578.0"/>
      <point x="298" y="578" type="curve" smooth="yes"/>
      <point x="316" y="578"/>
      <point x="333" y="585"/>
      <point x="350" y="606" type="curve" smooth="yes"/>
      <point x="383" y="647"/>
      <point x="401.0" y="707"/>
      <point x="401" y="745" type="curve" smooth="yes"/>
    </contour>
    <component base="t.alt3"/>
  </outline>
</glyph>
<glyph name="thorn.alt1" format="2">
  <advance width="593"/>
  <outline>
    <contour>
      <point x="135" y="-31" type="curve" smooth="yes"/>
      <point x="135" y="196"/>
      <point x="161" y="428"/>
      <point x="161" y="614" type="curve" smooth="yes"/>
      <point x="161" y="759"/>
      <point x="137.0" y="810.0"/>
      <point x="103" y="810.0" type="curve" smooth="yes"/>
      <point x="88.0" y="810.0"/>
      <point x="78.0" y="797.0"/>
      <point x="78" y="773" type="curve" smooth="yes"/>
      <point x="78" y="733"/>
      <point x="93" y="697"/>
      <point x="93" y="595" type="curve" smooth="yes"/>
      <point x="93" y="434"/>
      <point x="65.0" y="244.65000000000003"/>
      <point x="65" y="-42" type="curve" smooth="yes"/>
      <point x="65.0" y="-197.9774647887324"/>
      <point x="99.23880597014926" y="-260.0"/>
      <point x="139" y="-260" type="curve" smooth="yes"/>
      <point x="156.47058823529412" y="-260.0"/>
      <point x="166.0" y="-249.0"/>
      <point x="166" y="-231" type="curve" smooth="yes"/>
      <point x="166" y="-194"/>
      <point x="135.0" y="-183.87958115183247"/>
    </contour>
    <contour>
      <point x="229" y="494" type="curve" smooth="yes"/>
      <point x="149.17699115044246" y="494.0"/>
      <point x="119.0" y="470.3191489361702"/>
      <point x="119" y="441" type="curve" smooth="yes"/>
      <point x="119.0" y="429.1034482758621"/>
      <point x="127.03571428571428" y="418.0"/>
      <point x="144" y="418" type="curve" smooth="yes"/>
      <point x="164" y="418"/>
      <point x="183" y="429"/>
      <point x="236" y="429" type="curve" smooth="yes"/>
      <point x="367" y="429"/>
      <point x="464" y="335"/>
      <point x="464" y="197" type="curve" smooth="yes"/>
      <point x="464.0" y="93.99999999999999"/>
      <point x="399" y="56"/>
      <point x="305" y="56" type="curve" smooth="yes"/>
      <point x="182" y="56"/>
      <point x="175" y="117.0"/>
      <point x="142" y="117" type="curve" smooth="yes"/>
      <point x="121.0" y="117.0"/>
      <point x="116" y="104"/>
      <point x="116" y="88" type="curve" smooth="yes"/>
      <point x="116.0" y="48.0"/>
      <point x="196.0" y="-10"/>
      <point x="310" y="-10" type="curve" smooth="yes"/>
      <point x="439.72972972972974" y="-10.0"/>
      <point x="535.0" y="62.0"/>
      <point x="535" y="191" type="curve" smooth="yes"/>
      <point x="535.0" y="376.0"/>
      <point x="403.71287128712873" y="494.0"/>
    </contour>
  </outline>
</glyph>
<glyph name="w.alt3" format="2">
  <advance width="857"/>
  <anchor x="417" y="485" name="top"/>
  <anchor x="431" y="0" name="bottom"/>
  <outline>
    <contour>
      <point x="131" y="432" type="curve" smooth="yes"/>
      <point x="187" y="322"/>
      <point x="193" y="150"/>
      <point x="239" y="53" type="curve" smooth="yes"/>
      <point x="255" y="21"/>
      <point x="198" y="18"/>
      <point x="219" y="50" type="curve" smooth="yes"/>
      <point x="258" y="111"/>
      <point x="290" y="287"/>
      <point x="325" y="377" type="curve" smooth="yes"/>
      <point x="357" y="461"/>
      <point x="380" y="492"/>
      <point x="412" y="492" type="curve" smooth="yes"/>
      <point x="462" y="492"/>
      <point x="491" y="444"/>
      <point x="537" y="327" type="curve" smooth="yes"/>
      <point x="565" y="252"/>
      <point x="601" y="118"/>
      <point x="651" y="60" type="curve" smooth="yes"/>
      <point x="687" y="16"/>
      <point x="619" y="6"/>
      <point x="639" y="56" type="curve" smooth="yes"/>
      <point x="684" y="153"/>
      <point x="678" y="291"/>
      <point x="709" y="397" type="curve" smooth="yes"/>
      <point x="726" y="454"/>
      <point x="757.1134020619" y="494"/>
      <point x="796" y="494" type="curve" smooth="yes"/>
      <point x="809.6610169492" y="494"/>
      <point x="822" y="483"/>
      <point x="822" y="472" type="curve" smooth="yes"/>
      <point x="822" y="451"/>
      <point x="811" y="431"/>
      <point x="795" y="417" type="curve" smooth="yes"/>
      <point x="758.0142863551" y="383.454817857"/>
      <point x="749.9818105705" y="250.2684828732"/>
      <point x="736" y="161" type="curve" smooth="yes"/>
      <point x="713" y="17"/>
      <point x="696" y="-13"/>
      <point x="652" y="-13" type="curve" smooth="yes"/>
      <point x="618.3979591837" y="-13"/>
      <point x="601" y="4"/>
      <point x="563" y="66" type="curve" smooth="yes"/>
      <point x="503" y="166"/>
      <point x="473" y="356"/>
      <point x="413" y="422" type="curve" smooth="yes"/>
      <point x="381" y="455"/>
      <point x="447" y="455"/>
      <point x="426" y="428" type="curve" smooth="yes"/>
      <point x="375" y="365"/>
      <point x="350" y="195"/>
      <point x="297" y="58" type="curve" smooth="yes"/>
      <point x="274" y="0"/>
      <point x="261" y="-15"/>
      <point x="223" y="-15" type="curve" smooth="yes"/>
      <point x="195" y="-15"/>
      <point x="171" y="11"/>
      <point x="151" y="97" type="curve" smooth="yes"/>
      <point x="127" y="198"/>
      <point x="110" y="345"/>
      <point x="52" y="435" type="curve" smooth="yes"/>
      <point x="26" y="474"/>
      <point x="36" y="495"/>
      <point x="64" y="495" type="curve" smooth="yes"/>
      <point x="82" y="495"/>
      <point x="103" y="490"/>
    </contour>
  </outline>
</glyph>
<glyph name="x.alt2" format="2">
  <advance width="499"/>
  <anchor x="244" y="485" name="top"/>
  <anchor x="258" y="0" name="bottom"/>
  <outline>
    <contour>
      <point x="447" y="426" type="curve" smooth="yes"/>
      <point x="296.00408610768216" y="336.7751417909305"/>
      <point x="178" y="174"/>
      <point x="99" y="16" type="curve" smooth="yes"/>
      <point x="90" y="-4"/>
      <point x="75.68571428571428" y="-13.0"/>
      <point x="65" y="-13" type="curve" smooth="yes"/>
      <point x="48.0" y="-13"/>
      <point x="35" y="-3.0"/>
      <point x="39" y="28" type="curve" smooth="yes"/>
      <point x="47" y="92"/>
      <point x="172" y="290"/>
      <point x="338" y="428" type="curve" smooth="yes"/>
      <point x="410" y="488"/>
      <point x="432" y="497"/>
      <point x="455" y="497" type="curve" smooth="yes"/>
      <point x="469.7692307692308" y="497.0"/>
      <point x="479" y="487"/>
      <point x="479" y="470" type="curve" smooth="yes"/>
      <point x="479.0" y="454.0"/>
      <point x="471.3221884590047" y="440.9675005901567"/>
    </contour>
    <contour>
      <point x="200" y="384"/>
      <point x="351" y="197"/>
      <point x="412" y="112" type="curve" smooth="yes"/>
      <point x="451.48802932887145" y="56.13888533964524"/>
      <point x="460.0" y="32.63636363636364"/>
      <point x="460" y="15" type="curve" smooth="yes"/>
      <point x="460.0" y="-0.8260869565217401"/>
      <point x="451.30434782608694" y="-11.0"/>
      <point x="435" y="-11" type="curve" smooth="yes"/>
      <point x="418.6938775510204" y="-11.0"/>
      <point x="408.1483221314807" y="-3.237315410369135"/>
      <point x="388" y="29" type="curve" smooth="yes"/>
      <point x="300" y="158"/>
      <point x="172" y="326"/>
      <point x="79" y="405" type="curve" smooth="yes"/>
      <point x="47.2815423033828" y="431.91263077288727"/>
      <point x="29.0" y="451.0"/>
      <point x="29" y="473" type="curve" smooth="yes"/>
      <point x="29.0" y="485.04761904761904"/>
      <point x="35.26086956521739" y="496.0"/>
      <point x="53" y="496" type="curve" smooth="yes"/>
      <point x="78.67901234567901" y="496.0"/>
      <point x="93.38864883649704" y="483.6404998262403"/>
      <point x="133" y="447" type="curve" smooth="yes"/>
    </contour>
  </outline>
</glyph>
<glyph name="y.alt3" format="2">
  <advance width="563"/>
  <anchor x="270" y="485" name="top"/>
  <anchor x="282" y="-250" name="bottom"/>
  <outline>
    <contour>
      <point x="139" y="421" type="curve" smooth="yes"/>
      <point x="143" y="483"/>
      <point x="132" y="497"/>
      <point x="113" y="497" type="curve" smooth="yes"/>
      <point x="88" y="497"/>
      <point x="68" y="472.1017964072"/>
      <point x="68" y="343" type="curve" smooth="yes"/>
      <point x="68" y="123.5862068966"/>
      <point x="132" y="28"/>
      <point x="236" y="28" type="curve" smooth="yes"/>
      <point x="294.8586956522" y="28"/>
      <point x="379" y="67"/>
      <point x="427" y="271" type="curve" smooth="yes"/>
      <point x="435" y="307"/>
      <point x="393.9942274747" y="336.0711944786"/>
      <point x="397" y="299" type="curve" smooth="yes"/>
      <point x="400" y="127"/>
      <point x="418" y="66"/>
      <point x="418" y="-5" type="curve" smooth="yes"/>
      <point x="418" y="-117.8358208955"/>
      <point x="386" y="-194"/>
      <point x="281" y="-194" type="curve" smooth="yes"/>
      <point x="178.7" y="-194"/>
      <point x="168.8" y="-164"/>
      <point x="138" y="-164" type="curve" smooth="yes"/>
      <point x="117" y="-164"/>
      <point x="108" y="-175"/>
      <point x="108" y="-191" type="curve" smooth="yes"/>
      <point x="108" y="-236.5"/>
      <point x="179.2962962963" y="-261"/>
      <point x="283" y="-261" type="curve" smooth="yes"/>
      <point x="401" y="-261"/>
      <point x="485" y="-187"/>
      <point x="485" y="-5" type="curve" smooth="yes"/>
      <point x="485" y="187"/>
      <point x="445" y="231"/>
      <point x="462" y="400" type="curve" smooth="yes"/>
      <point x="469.9019884861" y="476.3858886988"/>
      <point x="444.8095238095" y="496"/>
      <point x="424" y="496" type="curve" smooth="yes"/>
      <point x="404.28" y="496"/>
      <point x="399.0020266342" y="489.0187463662"/>
      <point x="395" y="452" type="curve" smooth="yes"/>
      <point x="373.825514965" y="247.666219413"/>
      <point x="320.7337278107" y="93"/>
      <point x="232" y="93" type="curve" smooth="yes"/>
      <point x="160.3793103448" y="93"/>
      <point x="127" y="226"/>
    </contour>
  </outline>
</glyph>
<glyph name="z.alt1" format="2">
  <advance width="603"/>
  <anchor x="290" y="485" name="top"/>
  <anchor x="307" y="0" name="bottom"/>
  <outline>
    <contour>
      <point x="106" y="462" type="curve" smooth="yes"/>
      <point x="166" y="481"/>
      <point x="249" y="496"/>
      <point x="315" y="496" type="curve" smooth="yes"/>
      <point x="467" y="496"/>
      <point x="513" y="443"/>
      <point x="513" y="390" type="curve" smooth="yes"/>
      <point x="513" y="308"/>
      <point x="417" y="202"/>
      <point x="123" y="74" type="curve"/>
      <point x="133" y="94" type="line"/>
      <point x="149" y="61"/>
      <point x="175" y="56"/>
      <point x="223" y="56" type="curve" smooth="yes"/>
      <point x="293" y="56"/>
      <point x="381" y="68"/>
      <point x="456" y="68" type="curve" smooth="yes"/>
      <point x="503" y="68"/>
      <point x="534" y="52"/>
      <point x="534" y="30" type="curve" smooth="yes"/>
      <point x="534" y="14"/>
      <point x="520" y="0"/>
      <point x="498" y="0" type="curve" smooth="yes"/>
      <point x="421" y="0"/>
      <point x="304" y="-10"/>
      <point x="213" y="-10" type="curve" smooth="yes"/>
      <point x="106" y="-10"/>
      <point x="74" y="39"/>
      <point x="74" y="82" type="curve" smooth="yes"/>
      <point x="74" y="106"/>
      <point x="84" y="130"/>
      <point x="117" y="144" type="curve" smooth="yes"/>
      <point x="332" y="237"/>
      <point x="461" y="332"/>
      <point x="451" y="419" type="curve"/>
      <point x="468" y="372" type="line"/>
      <point x="439" y="415"/>
      <point x="399" y="430"/>
      <point x="331" y="430" type="curve" smooth="yes"/>
      <point x="217" y="430"/>
      <point x="148" y="396"/>
      <point x="108" y="396" type="curve" smooth="yes"/>
      <point x="95" y="396"/>
      <point x="81" y="413"/>
      <point x="81" y="432" type="curve" smooth="yes"/>
      <point x="81" y="449"/>
      <point x="87" y="456"/>
    </contour>
  </outline>
</glyph>
<glyph name="zero.alt1" format="2">
  <advance width="700"/>
  <outline>
    <contour>
      <point x="285" y="560" type="curve" smooth="yes"/>
      <point x="213" y="504"/>
      <point x="148" y="395"/>
      <point x="148" y="270" type="curve" smooth="yes"/>
      <point x="148" y="147"/>
      <point x="195" y="55"/>
      <point x="317" y="55" type="curve" smooth="yes"/>
      <point x="444" y="55"/>
      <point x="551" y="182"/>
      <point x="551" y="417" type="curve" smooth="yes"/>
      <point x="551" y="549"/>
      <point x="513.25" y="646"/>
      <point x="400" y="646" type="curve" smooth="yes"/>
      <point x="328.306010929" y="646"/>
      <point x="249.2800206182" y="595.4814587624"/>
      <point x="195" y="516" type="curve" smooth="yes"/>
      <point x="187" y="505"/>
      <point x="168" y="504"/>
      <point x="151" y="504" type="curve" smooth="yes"/>
      <point x="139" y="504"/>
      <point x="128" y="515"/>
      <point x="128" y="527" type="curve" smooth="yes"/>
      <point x="128" y="573.4742268041"/>
      <point x="265.0381679389" y="711"/>
      <point x="400" y="711" type="curve" smooth="yes"/>
      <point x="552" y="711"/>
      <point x="618" y="599"/>
      <point x="618" y="417" type="curve" smooth="yes"/>
      <point x="618" y="128"/>
      <point x="464.3172205438" y="-11"/>
      <point x="317" y="-11" type="curve" smooth="yes"/>
      <point x="186.5789473684" y="-11"/>
      <point x="81" y="74"/>
      <point x="81" y="270" type="curve" smooth="yes"/>
      <point x="81" y="474.9656992084"/>
      <point x="218" y="633"/>
      <point x="285" y="633" type="curve" smooth="yes"/>
      <point x="301.64" y="633"/>
      <point x="311" y="628"/>
      <point x="311" y="604" type="curve" smooth="yes"/>
      <point x="311" y="587"/>
      <point x="302.64996926" y="573.7277538689"/>
    </contour>
  </outline>
</glyph>
